<svg width="15" height="14" viewBox="0 0 15 14" fill="none" xmlns="http://www.w3.org/2000/svg">
<path d="M7.47714 6.68315C8.56384 6.68315 9.44794 5.79021 9.44794 4.69265C9.44794 3.59509 8.56384 2.70215 7.47714 2.70215C6.39042 2.70215 5.50635 3.59509 5.50635 4.69265C5.50635 5.79021 6.39042 6.68315 7.47714 6.68315ZM7.47714 3.33503C8.2183 3.33503 8.82129 3.94404 8.82129 4.69262C8.82129 5.44119 8.2183 6.05021 7.47714 6.05021C6.73598 6.05021 6.13299 5.44119 6.13299 4.69262C6.13299 3.94404 6.73598 3.33503 7.47714 3.33503Z" fill="#198AC6"/>
<path d="M14.8373 12.8945L13.3136 6.88181C13.2603 6.67175 13.073 6.52485 12.8583 6.52485H11.2194C11.487 5.96447 11.6285 5.34602 11.6285 4.70548C11.6285 3.58568 11.1968 2.53293 10.4128 1.74109C9.62883 0.94929 8.58646 0.513184 7.47774 0.513184C6.36902 0.513184 5.3267 0.949259 4.5427 1.74109C3.75871 2.53293 3.32695 3.58568 3.32695 4.70548C3.32695 5.34602 3.46845 5.9645 3.73609 6.52485H1.99417C1.77949 6.52485 1.59209 6.67178 1.53885 6.88181L0.0151712 12.8945C-0.0208295 13.0365 0.0101894 13.1874 0.0992354 13.3033C0.18825 13.4191 0.325297 13.4869 0.47049 13.4869H14.382C14.5272 13.4869 14.6642 13.4191 14.7532 13.3033C14.8422 13.1874 14.8733 13.0365 14.8373 12.8945ZM4.6743 7.80273L7.14547 10.2986C7.15158 10.3047 7.15812 10.3102 7.16445 10.3159V12.5375H4.02105L4.6743 7.80273ZM7.7911 10.3159C7.79746 10.3102 7.80401 10.3047 7.81008 10.2986L10.1907 7.89415L10.8314 12.5375H7.7911V10.3159ZM5.20738 2.41239C5.81382 1.79989 6.62012 1.46255 7.47774 1.46255C8.33537 1.46255 9.14167 1.79986 9.74814 2.41239C10.3546 3.02489 10.6886 3.83925 10.6886 4.70548C10.6886 5.57169 10.3546 6.38605 9.74814 6.99858L7.47774 9.29168L5.20735 6.99858C4.60092 6.38608 4.26692 5.57169 4.26692 4.70548C4.26695 3.83922 4.60092 3.02489 5.20738 2.41239ZM2.35901 7.47421H4.08694L3.38836 12.5375H1.07589L2.35901 7.47421ZM11.4641 12.5375L10.7655 7.47421H12.4934L13.7765 12.5375H11.4641Z" fill="#198AC6"/>
</svg>
