<svg width="25" height="30" viewBox="0 0 25 30" fill="none" xmlns="http://www.w3.org/2000/svg">
<path d="M22.9134 17.6915C22.3681 16.4787 19.5212 15.3997 18.5406 15.0583C17.0166 11.722 17.8429 7.50977 17.8429 7.50977C17.5689 8.70668 17.2285 9.16595 17.2285 9.16595C16.9581 11.3319 15.1973 13.114 15.1973 13.114C15.1645 13.6956 15.2372 14.1894 15.3755 14.6106C12.6501 19.017 10.4194 16.7127 9.3182 14.9138C9.52921 14.4297 9.656 13.841 9.61787 13.1131C9.61787 13.1131 7.85176 11.331 7.58312 9.16506C7.58312 9.16506 7.46165 8.99838 7.30738 8.61891C7.41644 8.56305 7.53081 8.45932 7.6505 8.28289C7.6505 8.28289 8.33318 11.2823 12.7325 12.6663C12.7325 12.6663 12.5658 12.9455 12.9524 13.0865H14.0748C14.0748 13.0865 14.7017 13.1211 14.7017 12.6095C14.707 12.4588 14.6857 12.0359 14.1786 12.0359L12.7485 12.0536C12.7485 12.0536 10.1525 11.9481 7.84289 8.11443C7.84289 8.11443 7.5973 7.5408 7.44658 6.94323C12.6243 7.23758 15.3356 4.86415 15.4171 4.78967C15.4916 5.06895 15.942 6.49993 17.4501 7.14538C17.4501 7.14538 17.5069 6.55756 17.6718 6.50259C17.6718 6.50259 17.8553 6.59479 17.9112 6.81467C17.9112 6.81467 18.3039 3.0537 16.5937 1.64844L16.6008 1.62804C13.0269 -1.5256 8.97952 0.873544 8.97952 0.873544C6.73553 2.31959 6.6646 5.02905 6.76301 6.26232C6.39152 6.20824 6.00053 6.32615 6.10249 7.15424C6.10249 7.15424 6.51653 8.65792 7.12031 8.66501C7.25507 10.1439 7.29852 12.7886 6.27715 15.0424C5.10152 15.5459 3.92233 15.9032 3.92233 15.9032C2.64917 16.3927 2.10923 17.1285 2.10923 17.1285C0.223424 19.9213 0 26.1462 0 26.1462C0.0257115 27.5674 0.635695 27.7146 0.635695 27.7146C4.9765 29.65 11.775 29.9931 11.775 29.9931C18.7605 30.1403 23.8425 28.0072 23.8425 28.0072C24.5802 27.5408 24.6059 27.1755 24.6059 27.1755C25.1175 22.7141 22.9134 17.6915 22.9134 17.6915Z" fill="#4F4F4F"/>
</svg>
