<svg width="36" height="24" viewBox="0 0 36 24" fill="none" xmlns="http://www.w3.org/2000/svg">
<path d="M34.7243 0.25293H1.604C1.10693 0.25293 0.705078 0.662493 0.705078 1.16768V22.3662C0.705078 22.8714 1.10693 23.281 1.604 23.281H34.7243C35.2213 23.281 35.6232 22.8714 35.6232 22.3662V1.16768C35.6232 0.662493 35.2213 0.25293 34.7243 0.25293ZM32.4881 16.9746C32.4621 17.0224 32.4269 17.0589 32.3812 17.0847C32.3354 17.1105 32.2872 17.1237 32.2377 17.1237C32.187 17.1237 32.1388 17.1105 32.0931 17.0847C32.0479 17.0589 32.0121 17.0224 31.9855 16.9746C31.9601 16.9286 31.9471 16.8796 31.9471 16.8286C31.9471 16.7776 31.9601 16.7292 31.9861 16.6814C32.0114 16.6336 32.0485 16.5977 32.0943 16.5719C32.1407 16.5474 32.1876 16.5342 32.2371 16.5342C32.2859 16.5342 32.3329 16.5474 32.3787 16.5719C32.425 16.5977 32.4615 16.6336 32.4869 16.6814C32.5128 16.7292 32.5252 16.7783 32.5252 16.8286C32.5252 16.8789 32.5141 16.9299 32.4881 16.9746ZM33.136 11.7673C33.1373 16.8034 29.1274 20.8877 24.1777 20.889C21.8631 20.8896 19.7524 19.9969 18.1623 18.5304C16.5722 19.9944 14.4658 20.8865 12.1549 20.8865C7.20833 20.8865 3.19349 16.8015 3.19349 11.7673C3.19349 6.75309 7.1768 2.68011 12.0974 2.6474C12.1165 2.6474 12.1357 2.6474 12.1549 2.6474C14.4658 2.6474 16.5728 3.5395 18.1629 5.00349C19.7524 3.53887 21.8606 2.64614 24.1734 2.64551C29.123 2.64362 33.136 6.72604 33.1373 11.7629C33.136 11.7641 33.136 11.7647 33.136 11.7673Z" fill="#F2F2F2"/>
</svg>
