<svg width="15" height="16" viewBox="0 0 15 16" fill="none" xmlns="http://www.w3.org/2000/svg">
<g clip-path="url(#clip0)">
<path d="M13.5995 2.2395H5.70729C4.935 2.2395 4.30698 2.86759 4.30698 3.63985V5.23116H9.29263C10.2097 5.23116 10.9998 5.75004 11.4096 6.50416H13.9815V8.35006C13.9815 8.56066 13.8105 8.73197 13.5995 8.73197H11.7114V9.75038H13.5995C14.3718 9.75038 15 9.1223 15 8.35003V3.63982C15 2.86759 14.3718 2.2395 13.5995 2.2395ZM13.9815 4.08537H5.32542V3.63985C5.32542 3.4292 5.49689 3.25794 5.70729 3.25794H13.5995C13.8105 3.25794 13.9815 3.4292 13.9815 3.63985V4.08537Z" fill="white"/>
<path d="M9.29264 6.24951H1.40041C0.628147 6.24951 -3.05176e-05 6.87763 -3.05176e-05 7.64989V12.3602C-3.05176e-05 13.1325 0.628147 13.7605 1.40041 13.7605H9.29264C10.0649 13.7605 10.693 13.1324 10.693 12.3602V7.64989C10.693 6.87763 10.065 6.24951 9.29264 6.24951ZM1.20936 10.3233C1.20936 10.0421 1.43709 9.81403 1.71865 9.81403H7.25634C7.53777 9.81403 7.7655 10.0421 7.7655 10.3233C7.7655 10.6045 7.53777 10.8325 7.25634 10.8325H1.71861C1.43709 10.8325 1.20936 10.6045 1.20936 10.3233ZM7.25631 12.8694H4.26463C4.13841 12.8694 4.02598 12.8183 3.93694 12.742C3.82804 12.6485 3.7555 12.5148 3.7555 12.3602C3.7555 12.0789 3.98323 11.8509 4.26463 11.8509H7.25631C7.53774 11.8509 7.76547 12.079 7.76547 12.3602C7.76547 12.5148 7.69289 12.6485 7.584 12.742C7.49498 12.8183 7.38264 12.8694 7.25631 12.8694Z" fill="white"/>
</g>
<defs>
<clipPath id="clip0">
<rect x="-3.05176e-05" y="0.5" width="15" height="15" rx="5" fill="white"/>
</clipPath>
</defs>
</svg>
