<svg width="21" height="16" viewBox="0 0 21 16" fill="none" xmlns="http://www.w3.org/2000/svg">
<path d="M12.1243 12.3398C11.768 12.3398 11.4781 12.0529 11.4781 11.7006V10.8635C11.4781 10.5111 11.768 10.2243 12.1243 10.2243H12.2056C12.2901 9.94306 12.4071 9.66993 12.5532 9.41461L12.4817 9.34393C12.3595 9.22302 12.2924 9.06245 12.2924 8.8918C12.2924 8.72313 12.3618 8.55799 12.4823 8.43939L13.0798 7.848C13.2016 7.72765 13.3643 7.66074 13.537 7.66074C13.7099 7.66074 13.8725 7.72765 13.9945 7.84913L14.0762 7.92953C14.1791 7.87372 14.2853 7.82341 14.3934 7.77707C13.889 7.63518 13.5185 7.1766 13.5185 6.63232C13.5185 5.97503 14.0579 5.44172 14.7227 5.44172C15.3875 5.44172 15.9265 5.97503 15.9265 6.63232C15.9265 6.70114 15.9194 6.76765 15.9082 6.83323H16.3766C16.7328 6.83323 17.0225 7.11961 17.0225 7.47238V7.60042C17.2513 7.66551 17.4741 7.75248 17.6879 7.85707V0.060791H0.119629V13.2042H12.4821L12.5209 13.1657C12.3768 12.9041 12.263 12.6257 12.1831 12.3395H12.1243V12.3398ZM3.55306 7.82292C2.88834 7.82292 2.34905 7.28986 2.34905 6.63212C2.34905 5.97486 2.88834 5.44152 3.55306 5.44152C4.21778 5.44152 4.75686 5.97486 4.75686 6.63212C4.75682 7.2901 4.21806 7.82292 3.55306 7.82292ZM4.7218 4.02996C4.71214 4.00294 4.69793 3.97775 4.67606 3.95591L3.58344 2.87557C3.50506 2.79788 3.37803 2.79788 3.29973 2.87557C3.22152 2.95314 3.22152 3.07826 3.29973 3.15563L4.18366 4.02992H1.94806C1.94806 2.59276 3.12581 1.42771 4.5788 1.42771C6.03159 1.42771 7.20959 2.59271 7.20959 4.02992H4.7218V4.02996ZM9.13802 7.82292C8.47318 7.82292 7.93426 7.28986 7.93426 6.63212C7.93426 5.97486 8.47318 5.44152 9.13802 5.44152C9.80274 5.44152 10.3417 5.97486 10.3417 6.63212C10.3417 7.2901 9.80303 7.82292 9.13802 7.82292ZM13.4967 1.428C14.9496 1.428 16.1273 2.59296 16.1273 4.03016H13.6963L14.371 3.03107C14.4328 2.9403 14.4077 2.81696 14.3158 2.75579C14.2235 2.69499 14.099 2.71946 14.0376 2.81064L13.2133 4.03016H10.8658C10.8658 2.5928 12.0437 1.428 13.4967 1.428ZM19.8947 10.7094H19.4008C19.308 10.2239 19.109 9.76281 18.8181 9.36163L19.161 9.02251C19.1944 8.9895 19.2132 8.94474 19.2132 8.89771C19.2132 8.85097 19.1944 8.80617 19.161 8.7732L18.5629 8.18165C18.4933 8.11266 18.3805 8.11266 18.3109 8.18165L17.9581 8.53097C17.5557 8.25877 17.099 8.0737 16.6218 7.98993V7.49385C16.6218 7.39667 16.5419 7.31785 16.4437 7.31785H15.5975C15.499 7.31785 15.4196 7.39688 15.4196 7.49385V7.98993C14.9382 8.0741 14.4781 8.26116 14.0734 8.53693L13.7301 8.19736C13.6607 8.12822 13.5477 8.12822 13.4779 8.19736L12.8799 8.78916C12.8466 8.82197 12.8277 8.86673 12.8277 8.91376C12.8277 8.96026 12.8466 9.00481 12.8799 9.03827L13.2165 9.37095C12.9292 9.77038 12.7325 10.2277 12.6406 10.7091H12.1911C12.0929 10.7091 12.0131 10.788 12.0131 10.8853V11.722C12.0131 11.8196 12.0929 11.8983 12.1911 11.8983H12.6253C12.707 12.3839 12.8965 12.848 13.1795 13.257L12.864 13.5691C12.7944 13.6382 12.7944 13.7495 12.864 13.8181L13.4621 14.4104C13.4954 14.4432 13.541 14.4619 13.5881 14.4619C13.635 14.4619 13.6808 14.4432 13.7142 14.4104L14.0196 14.1081C14.4364 14.4033 14.915 14.6028 15.4196 14.6914V15.1134C15.4196 15.2106 15.4994 15.2893 15.5974 15.2893H16.4437C16.5418 15.2893 16.6217 15.2103 16.6217 15.1134V14.6914C17.1218 14.6037 17.5971 14.4064 18.0124 14.1143L18.3269 14.4259C18.3937 14.492 18.5122 14.492 18.5788 14.4259L19.1772 13.8336C19.2466 13.7649 19.2466 13.6537 19.1772 13.585L18.8554 13.2662C19.1417 12.8549 19.3336 12.3871 19.4156 11.8982H19.8946C19.9933 11.8982 20.0728 11.8193 20.0728 11.722V10.8853C20.0728 10.7882 19.9928 10.7094 19.8947 10.7094ZM16.0432 13.1616C15.0059 13.1616 14.1651 12.3296 14.1651 11.3042C14.1651 10.2782 15.0059 9.44678 16.0432 9.44678C17.0799 9.44678 17.9207 10.2782 17.9207 11.3042C17.9207 12.3296 17.0799 13.1616 16.0432 13.1616ZM16.7554 11.3042C16.7554 11.693 16.4361 12.0087 16.0431 12.0087C15.6496 12.0087 15.3307 11.693 15.3307 11.3042C15.3307 10.915 15.65 10.5993 16.0431 10.5993C16.4361 10.5993 16.7554 10.9149 16.7554 11.3042Z" fill="white"/>
</svg>
