<svg width="17" height="21" viewBox="0 0 17 21" fill="none" xmlns="http://www.w3.org/2000/svg">
<path d="M14.7743 13.7326C12.7887 12.9054 11.6019 12.0574 11.6019 12.0574L10.0728 17.345L9.86356 18.06L9.17888 15.94C10.7536 13.5414 9.06096 13.425 8.76427 13.425H8.76046H8.75666H8.75285H8.74905C8.45616 13.4292 6.76347 13.5414 8.33824 15.94L7.65356 18.06L7.44435 17.345L5.91523 12.0574C5.91523 12.0574 4.72844 12.9054 2.74286 13.7326C0.555682 14.6014 0.692618 16.5677 0.646973 20.2508H8.75285H8.77187H16.8778C16.8245 16.5677 16.9576 14.6014 14.7743 13.7326Z" fill="white"/>
<path d="M4.88706 9.48828C4.68926 9.9497 4.35453 10.5234 3.8182 10.8102C3.64322 10.9058 3.68126 11.1926 3.87525 11.2259C4.46104 11.3257 5.30168 11.2134 6.08526 10.5649L6.09667 10.5732C8.08605 11.8577 10.6916 11.5626 12.4034 9.69612C14.4346 7.4763 14.4346 3.88053 12.4034 1.66487C10.3721 -0.554955 7.08565 -0.554955 5.05443 1.66487C3.09928 3.80155 3.02701 7.21026 4.83381 9.44255L4.88706 9.48828ZM8.94571 2.17201C9.41357 2.17617 9.78634 2.59187 9.78254 3.11149C9.77874 3.6228 9.39836 4.04265 8.9419 4.03849C8.47023 4.03434 8.08985 3.61448 8.09366 3.09902C8.09746 2.5794 8.47784 2.17201 8.94571 2.17201ZM7.29866 4.65788C7.31008 4.55811 7.36713 4.4916 7.48885 4.46666C7.55352 4.45419 7.61818 4.45003 7.68285 4.45003C7.94151 4.45003 8.20397 4.45003 8.46263 4.45003C8.7365 4.45003 9.01417 4.45003 9.28805 4.45003C9.48585 4.45003 9.60376 4.55396 9.60757 4.77012C9.61137 4.94887 9.58474 5.13178 9.55431 5.31052C9.44781 5.97148 9.33369 6.63244 9.22338 7.2934C9.18535 7.51372 9.14731 7.72988 9.12068 7.9502C9.10927 8.05412 9.12448 8.16636 9.14731 8.27028C9.17774 8.40746 9.27283 8.48645 9.40216 8.46982C9.50867 8.45735 9.61517 8.41578 9.71788 8.37421C9.80156 8.34095 9.87383 8.2786 9.95751 8.24119C10.0792 8.18715 10.1819 8.28276 10.1515 8.41994C10.1325 8.49892 10.0868 8.58206 10.0336 8.64025C9.72548 8.98113 9.35652 9.18482 8.91528 9.18897C8.70987 9.19313 8.50066 9.18482 8.29906 9.15156C7.96052 9.09752 7.5307 8.64025 7.59156 8.14973C7.6334 7.81718 7.67904 7.48046 7.7323 7.15206C7.82359 6.57424 7.91868 5.99642 8.00997 5.41861C8.01758 5.38119 8.01758 5.34378 8.01758 5.30637C8.01758 5.06526 7.94911 4.97797 7.72849 4.94471C7.6334 4.93224 7.5383 4.92393 7.45082 4.88651C7.3367 4.84494 7.29106 4.74933 7.29866 4.65788Z" fill="white"/>
</svg>
