<svg width="20" height="24" viewBox="0 0 20 24" fill="none" xmlns="http://www.w3.org/2000/svg">
<path d="M10.9051 0C9.63078 0 8.42804 0.306742 7.35049 0.853126C4.50685 2.26701 2.53955 5.34881 2.53955 8.92906V10.1225V10.4101L0.844986 13.8801C0.415757 14.7572 0.82263 15.4713 1.74369 15.4713H2.53955V15.4905V17.0002V18.7688C2.53955 19.7992 3.32647 20.6428 4.28776 20.6428L6.68877 20.2593L6.69324 22.8331V22.8523C6.70665 23.183 6.96598 23.3986 7.2879 23.3411L15.9396 21.702C16.2659 21.6397 16.5342 21.2994 16.5342 20.9447V20.5373V20.2066V15.4905C18.193 13.8609 19.2303 11.5172 19.2303 8.91948C19.2258 3.99244 15.5014 0 10.9051 0ZM15.1526 13.5446C13.154 15.687 10.1047 16.0273 7.77525 14.5559L7.76184 14.5463C6.84526 15.2892 5.86161 15.4186 5.17752 15.3035C4.94949 15.2652 4.90031 14.9345 5.11045 14.8243C5.73641 14.4936 6.13435 13.8369 6.36237 13.3049L6.29978 13.2522C4.18493 10.6928 4.26988 6.77708 6.55463 4.32794C8.92881 1.78294 12.7785 1.78294 15.1526 4.32794C17.5268 6.87293 17.5268 10.9996 15.1526 13.5446Z" fill="white"/>
<path d="M11.1018 7.05015C11.6383 7.05495 12.0809 6.57566 12.0854 5.98614C12.0899 5.39183 11.6517 4.91254 11.1062 4.90775C10.5563 4.90296 10.1136 5.37745 10.1092 5.96697C10.1047 6.56128 10.5518 7.04536 11.1018 7.05015Z" fill="white"/>
<path d="M12.2911 11.8673C12.1928 11.9056 12.1078 11.9775 12.0139 12.0207C11.8932 12.0686 11.7725 12.1165 11.6428 12.1309C11.4908 12.1501 11.3835 12.0638 11.3432 11.9009C11.3164 11.781 11.2985 11.6564 11.3119 11.5366C11.3388 11.2826 11.388 11.0334 11.4282 10.7841C11.5579 10.0269 11.6875 9.26959 11.8127 8.51232C11.8485 8.30623 11.8798 8.10013 11.8753 7.89404C11.8708 7.64481 11.7322 7.52979 11.4997 7.52979C11.1778 7.52979 10.8559 7.52979 10.534 7.52979C10.2299 7.52979 9.92589 7.52979 9.62185 7.52979C9.54584 7.52979 9.46983 7.53458 9.39382 7.54896C9.25522 7.57771 9.18368 7.64961 9.17474 7.76943C9.16132 7.87966 9.21945 7.98511 9.34911 8.03303C9.45195 8.07138 9.56373 8.08096 9.67551 8.10013C9.93036 8.13848 10.0108 8.23433 10.0108 8.51232C10.0108 8.55545 10.0064 8.59859 10.0019 8.64172C9.89459 9.30314 9.78281 9.96934 9.67998 10.6308C9.62185 11.0142 9.56373 11.3928 9.51455 11.7762C9.44301 12.337 9.94825 12.8642 10.3417 12.9217C10.5787 12.9601 10.8246 12.9649 11.066 12.9649C11.5847 12.9601 12.0139 12.7252 12.3761 12.3322C12.4387 12.2651 12.4923 12.1693 12.5147 12.0782C12.5549 11.9104 12.4342 11.805 12.2911 11.8673Z" fill="white"/>
</svg>
