<svg width="23" height="25" viewBox="0 0 23 25" fill="none" xmlns="http://www.w3.org/2000/svg">
<path d="M5.33076 25C3.95212 25 2.65598 24.4631 1.68116 23.4883C-0.331221 21.4759 -0.331221 18.2015 1.68116 16.1891L13.2616 4.60864C14.628 3.24224 16.8513 3.24224 18.2177 4.60864C19.5841 5.97504 19.5841 8.19838 18.2177 9.56477L9.69961 18.0829C9.36119 18.4213 8.81239 18.4213 8.47391 18.0829C8.13543 17.7444 8.13543 17.1956 8.47391 16.8571L16.992 8.33902C17.6825 7.64848 17.6825 6.52488 16.992 5.83434C16.6574 5.49979 16.2127 5.31559 15.7397 5.31559C15.2666 5.31559 14.8218 5.49979 14.4873 5.83434L2.90686 17.4148C1.57034 18.7513 1.57034 20.9261 2.90686 22.2626C3.55435 22.91 4.41517 23.2666 5.33076 23.2666C6.24635 23.2666 7.10723 22.91 7.75466 22.2626L19.6069 10.4103C20.5673 9.44996 21.0961 8.17313 21.0961 6.81494C21.0961 5.45674 20.5673 4.17991 19.6069 3.21954C17.6243 1.23697 14.3986 1.23703 12.4161 3.21954L3.62617 12.0094C3.28775 12.3478 2.73895 12.3478 2.40047 12.0094C2.06199 11.6709 2.06199 11.1221 2.40047 10.7837L11.1904 1.99378C13.8487 -0.664593 18.1742 -0.664593 20.8326 1.99378C22.1204 3.28153 22.8296 4.99375 22.8296 6.81494C22.8296 8.63612 22.1204 10.3483 20.8326 11.6361L8.98036 23.4883C8.00554 24.4632 6.70941 25 5.33076 25Z" fill="#209cd7"/>
</svg>
