<svg width="20" height="16" viewBox="0 0 20 16" fill="none" xmlns="http://www.w3.org/2000/svg">
<path d="M2.71934 15.5964C2.71934 15.5964 2.70157 16 3.13829 16C3.68159 16 8.17975 15.9947 8.17975 15.9947L8.18715 12.2647C8.18715 12.2647 8.11609 11.6498 8.77708 11.6498H10.8689C11.6505 11.6498 11.6024 12.2647 11.6024 12.2647L11.5935 15.9827C11.5935 15.9827 15.8585 15.9827 16.5284 15.9827C17.0828 15.9827 17.0576 15.4801 17.0576 15.4801V8.60354L10.1028 3.01758L2.71934 8.60354V15.5964Z" fill="#209cd7"/>
<path d="M0 8.08356C0 8.08356 0.626943 9.12684 1.99408 8.08356L10.1643 1.84261L17.8246 8.0448C19.4071 9.07538 20 8.0448 20 8.0448L10.1643 0L0 8.08356Z" fill="#209cd7"/>
<path d="M17.6388 1.82788H15.6685L15.6766 3.98527L17.6388 5.48837V1.82788Z" fill="#209cd7"/>
</svg>
