<svg width="18" height="15" viewBox="0 0 18 15" fill="none" xmlns="http://www.w3.org/2000/svg">
<path d="M2.44736 14.6217C2.44736 14.6217 2.43137 15.0002 2.82441 15.0002C3.31338 15.0002 7.36172 14.9952 7.36172 14.9952L7.36838 11.4983C7.36838 11.4983 7.30443 10.9218 7.89932 10.9218H9.78193C10.4854 10.9218 10.4421 11.4983 10.4421 11.4983L10.4341 14.9839C10.4341 14.9839 14.2726 14.9839 14.8755 14.9839C15.3745 14.9839 15.3518 14.5127 15.3518 14.5127V8.06595L9.09244 2.8291L2.44736 8.06595V14.6217Z" fill="#4F4F4F"/>
<path d="M0 7.57832C0 7.57832 0.564249 8.55639 1.79467 7.57832L9.14789 1.72744L16.0421 7.54198C17.4664 8.50814 18 7.54198 18 7.54198L9.14789 0L0 7.57832Z" fill="#4F4F4F"/>
<path d="M15.8749 1.71362H14.1016L14.1089 3.73618L15.8749 5.14533V1.71362Z" fill="#4F4F4F"/>
</svg>
