<svg width="18" height="16" viewBox="0 0 18 16" fill="none" xmlns="http://www.w3.org/2000/svg">
<path d="M2.44736 15.1207C2.44736 15.1524 2.44629 15.1376 2.44962 15.1692C2.46035 15.2708 2.51845 15.5002 2.82441 15.5002C2.97369 15.5002 3.4547 15.4997 4.05098 15.499C5.88076 15.497 7.36454 14.0149 7.36802 12.1851C7.36826 12.0606 7.3553 11.9344 7.3802 11.8125C7.4146 11.644 7.52999 11.4218 7.89932 11.4218H9.78192C10.2775 11.4218 10.4025 11.708 10.4331 11.877C10.4475 11.9571 10.442 12.039 10.4418 12.1203C10.4376 13.9767 11.942 15.4839 13.7984 15.4839C14.3031 15.4839 14.7105 15.4839 14.8755 15.4839C15.2105 15.4839 15.3104 15.2714 15.3398 15.1318C15.3564 15.0535 15.3518 14.9726 15.3518 14.8926V10.9019C15.3518 9.42139 14.6957 8.01702 13.5602 7.06702L10.518 4.52176C9.68731 3.8268 8.48326 3.80918 7.63263 4.47954L7.55894 4.53762C5.87733 5.86286 2.44736 12.9796 2.44736 15.1207Z" fill="#4F4F4F"/>
<path d="M1.58297 6.76695C0.668758 7.52431 0.865344 8.81705 1.79467 8.07832L5.94248 4.77795C7.80657 3.29472 10.4582 3.33256 12.2792 4.86838L16.0421 8.04198C17.1018 8.7608 17.2998 7.44544 16.3252 6.61503L12.3454 3.22429C10.4967 1.64915 7.78336 1.6304 5.91302 3.17984L1.58297 6.76695Z" fill="#4F4F4F"/>
<path d="M15.8749 3.09869C15.8749 2.60988 15.4787 2.21362 14.9898 2.21362C14.4998 2.21362 14.103 2.61184 14.1048 3.1019L14.1074 3.81269C14.1083 4.08044 14.2306 4.33331 14.4399 4.50031C15.0188 4.96218 15.8749 4.55003 15.8749 3.80949V3.09869Z" fill="#4F4F4F"/>
</svg>
