<svg width="323" height="34" viewBox="0 0 323 34" fill="none" xmlns="http://www.w3.org/2000/svg">
<path d="M20.8899 15.7H11.4699V16.75L14.7699 17.08C14.8299 19.24 14.8599 21.34 14.8599 23.53V25.48C13.9899 25.72 13.1199 25.84 12.1299 25.84C7.68995 25.84 4.50995 21.91 4.50995 15.37C4.50995 8.47 7.80995 4.93 12.3099 4.93C13.3899 4.93 14.3199 5.11 15.2199 5.56L16.4799 10.54H18.2499L18.3099 5.35C16.4499 4.27 14.4099 3.7 11.7699 3.7C4.80995 3.7 0.0399451 8.29 0.0399451 15.34C0.0399451 22.51 4.68995 27.07 11.5899 27.07C14.3799 27.07 16.5399 26.41 18.8499 25.09V23.62C18.8499 21.25 18.8799 19.09 18.9099 16.99L20.8899 16.75V15.7ZM26.585 6.64C27.875 6.64 28.955 5.71 28.955 4.42C28.955 3.07 27.875 2.17 26.585 2.17C25.295 2.17 24.215 3.07 24.215 4.42C24.215 5.71 25.295 6.64 26.585 6.64ZM28.715 25.33C28.685 23.62 28.655 21.1 28.655 19.45V14.95L28.715 10.27L28.295 10L22.205 11.71V12.52L24.635 12.76C24.695 14.26 24.725 15.4 24.725 17.32V19.45C24.725 21.1 24.695 23.59 24.665 25.3L22.475 25.57V26.5H30.725V25.57L28.715 25.33ZM40.1061 7.69C41.1861 6.79 42.2961 5.92 44.0661 4.69C45.2961 3.85 45.7761 3.07 45.7761 2.35C45.7761 1.39 45.0561 0.849999 44.3061 0.849999C43.4961 0.849999 42.8661 1.39 42.1761 2.65C41.0061 4.63 40.2261 5.89 39.4461 7.21L40.1061 7.69ZM41.0061 25.87C38.5161 25.87 37.1361 23.44 37.1361 18.46C37.1361 13.51 38.5161 11.08 41.0061 11.08C43.4361 11.08 44.8761 13.51 44.8761 18.46C44.8761 23.44 43.4361 25.87 41.0061 25.87ZM50.1861 8.26C50.1861 7.54 50.0061 7 49.7661 6.37C49.3761 6.04 48.9561 5.92 48.5361 5.92C47.6361 5.92 46.9761 6.64 46.9761 7.3C46.9761 8.41 48.1161 8.77 48.1161 9.97C48.1161 10.99 47.6961 11.74 46.7361 12.22C45.2361 10.75 43.1961 9.97 41.0061 9.97C36.6261 9.97 32.9061 13.06 32.9061 18.43C32.9061 23.8 36.3561 26.98 41.0061 26.98C45.5961 26.98 49.1061 23.83 49.1061 18.43C49.1061 16.12 48.4161 14.23 47.2761 12.85C49.0461 11.98 50.1861 10.3 50.1861 8.26ZM55.5889 6.64C56.8789 6.64 57.9589 5.71 57.9589 4.42C57.9589 3.07 56.8789 2.17 55.5889 2.17C54.2989 2.17 53.2189 3.07 53.2189 4.42C53.2189 5.71 54.2989 6.64 55.5889 6.64ZM57.7189 25.33C57.6889 23.62 57.6589 21.1 57.6589 19.45V14.95L57.7189 10.27L57.2989 10L51.2089 11.71V12.52L53.6389 12.76C53.6989 14.26 53.7289 15.4 53.7289 17.32V19.45C53.7289 21.1 53.6989 23.59 53.6689 25.3L51.4789 25.57V26.5H59.7289V25.57L57.7189 25.33ZM79.2193 24.28C78.4093 24.88 77.8693 25.18 77.0893 25.18C75.8893 25.18 75.1393 24.49 75.1393 22.81V11.71H79.1293V10.45H75.1693L75.2593 5.71H72.6793L71.3893 10.42L68.5993 10.72V11.71H71.1793V19.57C71.1793 20.77 71.1493 21.61 71.1493 22.57C71.1493 25.63 72.6793 26.98 75.4393 26.98C77.4793 26.98 78.8893 26.2 79.7593 24.85L79.2193 24.28ZM97.3916 25.33C97.3616 23.62 97.3316 21.16 97.3316 19.45V15.85C97.3316 11.68 95.5916 9.97 92.7416 9.97C90.5516 9.97 88.7816 10.99 86.9816 13.06V6.97L87.1016 2.2L86.6516 1.93L80.7116 3.22V4.06L83.1416 4.24V19.45C83.1416 21.1 83.1116 23.59 83.0816 25.3L80.8916 25.57V26.5H89.0516V25.57L87.1316 25.33C87.0716 23.62 87.0416 21.1 87.0416 19.45V14.05C88.5116 12.7 89.8016 12.1 91.0016 12.1C92.5616 12.1 93.4316 13 93.4316 15.61V19.45C93.4316 21.16 93.4016 23.62 93.3716 25.3L91.2116 25.57V26.5H99.4316V25.57L97.3916 25.33ZM105.569 6.64C106.859 6.64 107.939 5.71 107.939 4.42C107.939 3.07 106.859 2.17 105.569 2.17C104.279 2.17 103.199 3.07 103.199 4.42C103.199 5.71 104.279 6.64 105.569 6.64ZM107.699 25.33C107.669 23.62 107.639 21.1 107.639 19.45V14.95L107.699 10.27L107.279 10L101.189 11.71V12.52L103.619 12.76C103.679 14.26 103.709 15.4 103.709 17.32V19.45C103.709 21.1 103.679 23.59 103.649 25.3L101.459 25.57V26.5H109.709V25.57L107.699 25.33ZM119.93 4.48L124.34 8.05L124.94 7.42L120.71 1.57H119.09L114.89 7.42L115.49 8.05L119.93 4.48ZM119.63 29.02C118.34 29.02 117.29 29.92 117.29 31.21C117.29 32.53 118.34 33.46 119.63 33.46C120.95 33.46 122 32.53 122 31.21C122 29.92 120.95 29.02 119.63 29.02ZM116.06 17.29C116.24 12.91 117.89 11.08 119.78 11.08C121.61 11.08 122.9 12.64 122.9 15.07C122.9 16.6 122.57 17.29 121.19 17.29H116.06ZM126.44 18.4C126.59 17.89 126.65 17.32 126.65 16.54C126.65 12.76 124.16 9.97 120.05 9.97C115.85 9.97 111.89 13.06 111.89 18.46C111.89 23.92 115.31 26.98 120.02 26.98C122.99 26.98 125.27 25.57 126.47 23.11L125.87 22.69C124.82 24.1 123.53 25 121.37 25C118.46 25 116.18 22.99 116.06 18.4H126.44ZM145.018 25.39V15.28L145.108 10.48L144.778 10.15L138.988 10.99V11.77L141.118 12.16L141.058 22.84C139.948 23.95 138.688 24.61 137.338 24.61C135.688 24.61 134.758 23.74 134.758 21.1V15.28L134.938 10.48L134.608 10.15L128.668 10.93V11.77L130.918 12.19L130.798 20.89C130.738 25.39 132.538 26.98 135.418 26.98C137.638 26.98 139.648 25.66 141.088 23.83L141.298 26.83L147.058 26.5V25.6L145.018 25.39ZM172.643 10.45H166.703V11.41L169.163 11.74L165.473 22.63L161.513 11.68L163.913 11.41V10.45H155.303V11.41L157.223 11.65L163.193 26.59H164.933L170.573 11.74L172.643 11.41V10.45ZM176.356 8.41L181.156 5.74L185.926 8.41L186.436 7.78L181.996 3.01H180.316L175.846 7.78L176.356 8.41ZM177.046 5.29L177.616 4.75L176.296 2.14C175.696 0.549998 175.006 0.219999 174.346 0.219999C173.626 0.219999 172.936 0.759999 172.936 1.66C172.936 2.23 173.206 2.95 174.856 3.67L177.046 5.29ZM177.496 17.29C177.676 12.91 179.326 11.08 181.216 11.08C183.046 11.08 184.336 12.64 184.336 15.07C184.336 16.6 184.006 17.29 182.626 17.29H177.496ZM187.876 18.4C188.026 17.89 188.086 17.32 188.086 16.54C188.086 12.76 185.596 9.97 181.486 9.97C177.286 9.97 173.326 13.06 173.326 18.46C173.326 23.92 176.746 26.98 181.456 26.98C184.426 26.98 186.706 25.57 187.906 23.11L187.306 22.69C186.256 24.1 184.966 25 182.806 25C179.896 25 177.616 22.99 177.496 18.4H187.876Z" fill="#4F4F4F"/>
<path d="M221.483 5.32V4.24H211.613V5.32L214.343 5.59C214.403 8.56 214.403 11.56 214.403 14.53H205.223C205.223 11.53 205.223 8.53 205.313 5.59L208.043 5.32V4.24H198.173V5.32L201.023 5.62C201.053 8.62 201.053 11.65 201.053 14.65V16.12C201.053 19.18 201.053 22.21 201.023 25.18L198.173 25.45V26.5H208.043V25.45L205.313 25.21C205.223 22.21 205.223 19.15 205.223 15.7H214.403C214.403 19.18 214.403 22.24 214.343 25.21L211.613 25.45V26.5H221.483V25.45L218.633 25.18C218.603 22.18 218.603 19.12 218.603 16.12V14.65C218.603 11.59 218.603 8.59 218.633 5.59L221.483 5.32ZM231.26 26.98C235.85 26.98 239.36 23.83 239.36 18.43C239.36 13.03 235.61 9.97 231.26 9.97C226.88 9.97 223.16 13.06 223.16 18.43C223.16 23.8 226.61 26.98 231.26 26.98ZM231.26 25.87C228.77 25.87 227.39 23.44 227.39 18.46C227.39 13.51 228.77 11.08 231.26 11.08C233.69 11.08 235.13 13.51 235.13 18.46C235.13 23.44 233.69 25.87 231.26 25.87ZM267.923 25.33C267.893 23.62 267.863 21.16 267.863 19.45V15.85C267.863 11.8 266.333 9.97 263.243 9.97C261.263 9.97 259.463 10.81 257.543 13.09C256.943 10.96 255.533 9.97 253.373 9.97C251.333 9.97 249.563 10.96 247.823 12.97L247.613 10.27L247.193 10L241.433 11.83V12.58L243.803 12.82C243.923 14.23 243.923 15.31 243.923 17.29V19.45C243.923 21.1 243.893 23.59 243.863 25.3L241.673 25.57V26.5H249.893V25.57L247.943 25.33C247.913 23.62 247.883 21.1 247.883 19.45V14.14C249.173 12.88 250.463 12.13 251.663 12.13C253.253 12.13 254.003 13.09 254.003 15.82V19.45C254.003 21.16 253.973 23.59 253.943 25.3L251.783 25.57V26.5H259.913V25.57L257.963 25.33C257.903 23.62 257.873 21.16 257.873 19.45V15.79C257.873 15.19 257.843 14.62 257.753 14.11C259.133 12.76 260.393 12.13 261.653 12.13C263.213 12.13 263.993 12.97 263.993 15.79V19.45C263.993 21.16 263.963 23.59 263.933 25.3L261.863 25.57V26.5H269.963V25.57L267.923 25.33Z" fill="#198AC6"/>
<path d="M277.337 18.19L280.517 7.9L283.817 18.19H277.337ZM290.357 25.18L283.187 4.15H280.577L273.737 25.09L271.157 25.45V26.5H278.177V25.45L275.237 25.09L277.007 19.3H284.177L286.067 25.12L283.157 25.45V26.5H292.847V25.45L290.357 25.18ZM298.343 6.64C299.633 6.64 300.713 5.71 300.713 4.42C300.713 3.07 299.633 2.17 298.343 2.17C297.053 2.17 295.973 3.07 295.973 4.42C295.973 5.71 297.053 6.64 298.343 6.64ZM300.473 25.33C300.443 23.62 300.413 21.1 300.413 19.45V14.95L300.473 10.27L300.053 10L293.963 11.71V12.52L296.393 12.76C296.453 14.26 296.483 15.4 296.483 17.32V19.45C296.483 21.1 296.453 23.59 296.423 25.3L294.233 25.57V26.5H302.483V25.57L300.473 25.33ZM316.094 23.86C315.164 24.73 314.264 25.06 313.184 25.06C310.694 25.06 308.864 23.23 308.864 18.46C308.864 13.54 310.874 11.86 313.244 11.86C314.174 11.86 315.104 12.16 316.094 13V23.86ZM320.054 25.39V6.94L320.144 2.2L319.724 1.93L313.664 3.22V4.06L316.244 4.27V12.07C315.014 10.6 313.574 9.97 311.924 9.97C307.814 9.97 304.664 13.21 304.664 18.64C304.664 23.8 307.604 26.98 311.534 26.98C313.454 26.98 314.984 26.2 316.184 24.82L316.394 26.83L322.304 26.5V25.57L320.054 25.39Z" fill="#2B5080"/>
</svg>
