<svg width="19" height="15" viewBox="0 0 19 15" fill="none" xmlns="http://www.w3.org/2000/svg">
<path d="M16.0152 13.9344C15.4527 10.9193 13.9855 7.94818 10.5238 6.9954C11.8691 6.32783 12.7621 5.13999 12.7621 3.78291C12.7621 1.69557 10.6379 0 8.01416 0C5.3904 0 3.26622 1.69244 3.26622 3.78291C3.26622 5.13686 4.16309 6.32783 5.50448 6.9954C2.04285 7.94818 0.571657 10.9193 0.013076 13.9344C-0.093133 14.4954 0.461514 15 1.17351 15H14.8469C15.5668 15 16.1214 14.4954 16.0152 13.9344ZM5.05604 3.78291C5.05604 2.48224 6.38562 1.4229 8.01809 1.4229C8.40752 1.4229 8.72615 1.67677 8.72615 1.98705C8.72615 2.29733 8.40752 2.55119 8.01809 2.55119C7.16448 2.55119 6.47216 3.1028 6.47216 3.78291C6.47216 4.09319 6.15353 4.34705 5.7641 4.34705C5.37073 4.34705 5.05604 4.09632 5.05604 3.78291Z" fill="white"/>
</svg>
