<svg width="13" height="15" viewBox="0 0 13 15" fill="none" xmlns="http://www.w3.org/2000/svg">
<path d="M12.9269 13.9088C12.4787 10.8213 11.3096 7.77874 8.55159 6.80306C9.62347 6.11945 10.3349 4.90306 10.3349 3.51336C10.3349 1.37585 8.64248 -0.360474 6.55201 -0.360474C4.46154 -0.360474 2.7691 1.37264 2.7691 3.51336C2.7691 4.89985 3.48369 6.11945 4.55243 6.80306C1.79438 7.77874 0.622214 10.8213 0.177166 13.9088C0.0925445 14.4833 0.534458 15.0001 1.10174 15.0001H11.996C12.5696 15.0001 13.0115 14.4833 12.9269 13.9088ZM4.19514 3.51336C4.19514 2.18143 5.25447 1.09663 6.55514 1.09663C6.86542 1.09663 7.11929 1.35659 7.11929 1.67433C7.11929 1.99207 6.86542 2.25204 6.55514 2.25204C5.87503 2.25204 5.32343 2.8169 5.32343 3.51336C5.32343 3.83109 5.06956 4.09106 4.75928 4.09106C4.44587 4.09106 4.19514 3.8343 4.19514 3.51336Z" fill="#656565"/>
</svg>
