<svg width="15" height="16" viewBox="0 0 15 16" fill="none" xmlns="http://www.w3.org/2000/svg">
<g clip-path="url(#clip0)">
<path d="M12.7601 14.4344C12.3119 11.4193 11.1429 8.44818 8.38484 7.4954C9.45672 6.82783 10.1682 5.63999 10.1682 4.28291C10.1682 2.19557 8.47573 0.5 6.38526 0.5C4.29479 0.5 2.60235 2.19244 2.60235 4.28291C2.60235 5.63686 3.31694 6.82783 4.38568 7.4954C1.62764 8.44818 0.455466 11.4193 0.0104183 14.4344C-0.0742035 14.9954 0.36771 15.5 0.93499 15.5H11.8293C12.4028 15.5 12.8447 14.9954 12.7601 14.4344ZM4.02839 4.28291C4.02839 2.98224 5.08773 1.9229 6.3884 1.9229C6.69868 1.9229 6.95254 2.17677 6.95254 2.48705C6.95254 2.79733 6.69868 3.05119 6.3884 3.05119C5.70829 3.05119 5.15668 3.6028 5.15668 4.28291C5.15668 4.59319 4.90281 4.84705 4.59253 4.84705C4.27912 4.84705 4.02839 4.59632 4.02839 4.28291Z" fill="#4F4F4F"/>
</g>
<defs>
<clipPath id="clip0">
<rect width="15" height="15" fill="white" transform="translate(0 0.5)"/>
</clipPath>
</defs>
</svg>
