<svg width="23" height="20" viewBox="0 0 23 20" fill="none" xmlns="http://www.w3.org/2000/svg">
<g clip-path="url(#clip0)">
<path d="M7.92478 8.29926C7.65509 8.29926 7.48044 8.32097 7.37744 8.34246V11.5227C7.48044 11.5444 7.64713 11.5444 7.7979 11.5444C8.89258 11.5514 9.60637 11.0034 9.60637 9.84266C9.61433 8.83302 8.9635 8.29926 7.92478 8.29926Z" fill="#D80000"/>
<path d="M3.25324 8.285C3.00695 8.285 2.84074 8.30671 2.75342 8.32821V9.76306C2.85666 9.78477 2.98331 9.79201 3.15795 9.79201C3.80058 9.79201 4.19715 9.49639 4.19715 8.99881C4.19715 8.55167 3.8563 8.285 3.25324 8.285Z" fill="#D80000"/>
<path d="M11.2542 0H0.00146484V20H16.05V5.93195L10.3486 2.35304L11.2542 0ZM4.90317 10.1238C4.49067 10.4769 3.88013 10.6358 3.16634 10.6358C3.00738 10.6358 2.86481 10.6286 2.75361 10.6139V12.3516H1.55592V7.55672C1.92862 7.49882 2.45207 7.45562 3.18974 7.45562C3.93537 7.45562 4.46679 7.58544 4.82404 7.84509C5.16514 8.09026 5.39502 8.49399 5.39502 8.96986C5.39502 9.44595 5.22038 9.84967 4.90317 10.1238ZM11.6835 7.4918H14.9519V8.39311H12.8974V9.5034H14.817V10.3973H12.8974V12.3516H11.6835V7.4918ZM10.8911 9.80625C10.8911 10.7365 10.5189 11.3782 10.0029 11.7749C9.43965 12.2003 8.58282 12.4025 7.53614 12.4025C6.90944 12.4025 6.4651 12.3661 6.16381 12.3303V7.55672C6.60815 7.4918 7.18709 7.45562 7.79811 7.45562C8.81319 7.45562 9.47174 7.62141 9.98748 7.97513C10.5423 8.34991 10.8911 8.94837 10.8911 9.80625Z" fill="#D80000"/>
<path d="M12.3805 0L11.6475 1.90656L16.0503 4.67034L12.3805 0Z" fill="#D80000"/>
</g>
<defs>
<clipPath id="clip0">
<rect x="0.00146484" width="22" height="20" rx="5" fill="white"/>
</clipPath>
</defs>
</svg>
