<svg width="21" height="21" viewBox="0 0 21 21" fill="none" xmlns="http://www.w3.org/2000/svg">
<path d="M0.191895 0.37793V20.6826H20.1451V0.37793H0.191895ZM11.8237 11.3845C11.4825 13.6654 9.81141 14.973 7.64787 14.973C5.21656 14.973 3.24541 12.9671 3.24541 10.493C3.24541 8.01947 5.21656 6.0136 7.64787 6.0136C8.82397 6.0136 9.85449 6.44069 10.6046 7.18207L9.34113 8.46778C8.91324 8.0291 8.32769 7.79527 7.64787 7.79527C6.21669 7.79527 5.0564 9.03718 5.0564 10.4929C5.0564 11.95 6.21669 13.1559 7.64787 13.1559C8.84739 13.1559 9.75576 12.5658 10.0178 11.3845H7.64787V9.58537H11.813C11.863 9.87524 11.8883 10.1786 11.8883 10.4929C11.8883 10.8047 11.8661 11.1017 11.8237 11.3845ZM17.1105 10.8267H15.5679V12.3958H14.4721V10.8267H12.9295V9.71097H14.4721V8.14119H15.5679V9.71097H17.1105V10.8267Z" fill="white"/>
</svg>
