<svg width="18" height="21" viewBox="0 0 18 21" fill="none" xmlns="http://www.w3.org/2000/svg">
<path d="M16.0665 12.352C15.7038 11.5311 13.8104 10.8008 13.1582 10.5697C12.1445 8.31167 12.6941 5.46072 12.6941 5.46072C12.5119 6.27082 12.2854 6.58166 12.2854 6.58166C12.1056 8.04764 10.9345 9.25379 10.9345 9.25379C10.9126 9.64743 10.961 9.98168 11.053 10.2667C9.2403 13.2491 7.75665 11.6895 7.02426 10.4719C7.16461 10.1443 7.24893 9.74585 7.22357 9.25319C7.22357 9.25319 6.04892 8.04704 5.87024 6.58106C5.87024 6.58106 5.78946 6.46824 5.68685 6.21141C5.75938 6.17361 5.83545 6.1034 5.91506 5.98398C5.91506 5.98398 6.36912 8.01403 9.29514 8.95075C9.29514 8.95075 9.18428 9.13977 9.44138 9.23518H10.1879C10.1879 9.23518 10.6048 9.25859 10.6048 8.91234C10.6084 8.81033 10.5942 8.5241 10.2569 8.5241L9.30576 8.5361C9.30576 8.5361 7.57916 8.46469 6.04302 5.86997C6.04302 5.86997 5.87968 5.48172 5.77943 5.07727C9.2232 5.27649 11.0265 3.6701 11.0807 3.61969C11.1302 3.80871 11.4298 4.77723 12.4329 5.21409C12.4329 5.21409 12.4706 4.81624 12.5803 4.77903C12.5803 4.77903 12.7023 4.84144 12.7395 4.99026C12.7395 4.99026 13.0007 2.44475 11.8632 1.49363L11.8679 1.47983C9.49092 -0.654635 6.799 0.969165 6.799 0.969165C5.30651 1.94789 5.25933 3.78171 5.32479 4.61641C5.07771 4.57981 4.81766 4.65962 4.88547 5.22009C4.88547 5.22009 5.16085 6.23781 5.56243 6.24261C5.65206 7.24354 5.68096 9.03356 5.00164 10.5589C4.21971 10.8998 3.43543 11.1416 3.43543 11.1416C2.58864 11.4729 2.22952 11.9709 2.22952 11.9709C0.975261 13.8612 0.82666 18.0743 0.82666 18.0743C0.843761 19.0362 1.24947 19.1358 1.24947 19.1358C4.13657 20.4458 8.65828 20.678 8.65828 20.678C13.3044 20.7776 16.6845 19.3338 16.6845 19.3338C17.1751 19.0182 17.1922 18.771 17.1922 18.771C17.5325 15.7514 16.0665 12.352 16.0665 12.352Z" fill="white"/>
</svg>
