<svg width="14" height="14" viewBox="0 0 14 14" fill="none" xmlns="http://www.w3.org/2000/svg">
<path d="M12.7587 3.47095L8.31486 0.438704C7.94226 0.184487 7.31694 0 6.82794 0H1.70468C1.07974 0 0.571289 0.415095 0.571289 0.925409C0.571384 1.0476 0.579175 13.1471 0.579175 13.2105C0.579175 13.6727 0.969108 13.9955 1.52743 13.9955C1.88157 13.9955 12.3355 14 12.3355 14C12.9452 14 13.4229 13.5888 13.4229 13.0639V4.6855C13.4229 4.24425 13.1435 3.73343 12.7587 3.47095ZM6.82794 0.0391525C6.82808 0.0391525 6.82827 0.0391525 6.82841 0.0391525C6.82822 0.0391525 6.82808 0.0391525 6.82794 0.0391525ZM9.91681 8.9837C9.86062 9.07332 9.74432 9.12254 9.60578 9.12254H8.08712V12.1267C8.08712 12.321 7.90358 12.4897 7.66924 12.4897H6.36496C6.13061 12.4897 5.96227 12.321 5.96227 12.1267V9.12254H4.42874C4.29025 9.12254 4.174 9.0734 4.11776 8.98382C4.06157 8.89424 4.07541 8.78677 4.15483 8.69272L6.7156 5.66318C6.78884 5.57653 6.89881 5.52736 7.01733 5.52736C7.13595 5.52736 7.24592 5.57735 7.31911 5.664L9.87965 8.69241C9.95917 8.78649 9.97305 8.89412 9.91681 8.9837ZM8.22689 4.46178C8.24871 4.46276 8.271 4.46339 8.29413 4.46339C8.27109 4.46339 8.24866 4.46284 8.22689 4.46178ZM8.29413 4.42423C7.54222 4.42423 7.5205 3.8467 7.5205 3.78084V1.21216L12.4299 4.42423H8.29413Z" fill="white"/>
</svg>
