<svg width="13" height="14" viewBox="0 0 13 14" fill="none" xmlns="http://www.w3.org/2000/svg">
<g clip-path="url(#clip0)">
<path d="M9.16033 2.22786V0.911407H8.17299V2.22786H4.82702V0.911407H3.83967V2.22786H0V4.3671H13V2.22786H9.16033Z" fill="#D80027"/>
<path d="M0 13.0886H9.21519V9.30383H13V5.35446H0V13.0886ZM8.63924 6.91775H10.2848V8.56332H8.63924V6.91775ZM5.67722 6.91775H7.32278V8.56332H5.67722V6.91775ZM5.67722 9.87978H7.32278V11.5253H5.67722V9.87978ZM2.71519 6.91775H4.36076V8.56332H2.71519V6.91775ZM2.71519 9.87978H4.36076V11.5253H2.71519V9.87978Z" fill="#D80027"/>
<path d="M10.2025 12.595L12.5063 10.2912H10.2025V12.595Z" fill="#D80027"/>
</g>
<defs>
<clipPath id="clip0">
<rect width="13" height="13" fill="white" transform="translate(0 0.5)"/>
</clipPath>
</defs>
</svg>
