<svg width="16" height="11" viewBox="0 0 16 11" fill="none" xmlns="http://www.w3.org/2000/svg">
<g clip-path="url(#clip0)">
<path d="M15.1971 0.5H13.8125C13.4317 0.5 13.1201 0.717742 13.1201 0.983871V10.0161C13.1201 10.2823 13.4317 10.5 13.8125 10.5H15.1971C15.5779 10.5 15.8895 10.2823 15.8895 10.0161V0.983871C15.8895 0.717742 15.5779 0.5 15.1971 0.5Z" fill="white"/>
<path d="M2.49306 6.68545H5.37783C5.77016 6.68545 6.09325 6.91126 6.09325 7.18545V8.04835C6.09325 8.46779 6.78559 8.70166 7.25869 8.44351L11.8743 5.93545C12.2436 5.73384 12.2436 5.33868 11.8743 5.13706L7.25869 2.55642C6.78559 2.29835 6.09325 2.53222 6.09325 2.95964V3.82255C6.09325 4.09674 5.77016 4.32255 5.37783 4.32255H2.49306C2.10074 4.32255 1.77764 4.54835 1.77764 4.82255V6.17739C1.7661 6.45964 2.0892 6.68545 2.49306 6.68545Z" fill="white"/>
</g>
<defs>
<clipPath id="clip0">
<rect width="16" height="10" fill="white" transform="translate(0 0.5)"/>
</clipPath>
</defs>
</svg>
