<svg width="21" height="21" viewBox="0 0 21 21" fill="none" xmlns="http://www.w3.org/2000/svg">
<path fill-rule="evenodd" clip-rule="evenodd" d="M0.273926 0.37793V20.6826H20.2271V0.37793H0.273926ZM6.48012 17.2465H3.51977V8.18324H6.48012V17.2465ZM4.99994 6.94621H4.98038C3.98733 6.94621 3.34365 6.25001 3.34365 5.3798C3.34365 4.4905 4.00614 3.81402 5.01933 3.81402C6.03273 3.81402 6.65549 4.4905 6.67487 5.3798C6.67487 6.25001 6.03273 6.94621 4.99994 6.94621ZM17.1574 17.2465H14.1963V12.3976C14.1963 11.1798 13.7684 10.3484 12.6967 10.3484C11.8782 10.3484 11.3919 10.9082 11.1776 11.4504C11.0997 11.644 11.0794 11.9133 11.0794 12.1849V17.2466H8.11764C8.11764 17.2466 8.15733 9.03354 8.11764 8.18328H11.0794V9.46756C11.4729 8.85142 12.1751 7.97051 13.7481 7.97051C15.6968 7.97051 17.1574 9.26554 17.1574 12.0492V17.2465Z" fill="white"/>
</svg>
