<svg width="20" height="20" viewBox="0 0 20 20" fill="none" xmlns="http://www.w3.org/2000/svg">
<g clip-path="url(#clip0)">
<path d="M17.3724 6.94444H14.7792V4.32411L10.3975 0H0.00146484V20H14.7792V17.096H17.3725V6.94444H17.3724ZM15.7891 15.4293H4.70576V8.61111H15.7891V15.4293Z" fill="#ADABAB"/>
<path d="M7.11368 13.6095C7.28927 13.5171 7.42353 13.3873 7.51648 13.2202C7.60936 13.0531 7.67011 12.8513 7.69888 12.6148C7.72753 12.3784 7.74189 12.1162 7.74189 11.8282V9.90283H7.04269V11.8282C7.04269 12.0415 7.03588 12.2273 7.02242 12.3855C7.00891 12.5438 6.98015 12.6762 6.93629 12.7828C6.89238 12.8895 6.82815 12.9687 6.74381 13.0202C6.65936 13.0717 6.54621 13.0975 6.40429 13.0975C6.25905 13.0975 6.13069 13.0762 6.01922 13.0335C5.90776 12.9908 5.82838 12.9518 5.78109 12.9162L5.62402 13.5135C5.8402 13.67 6.10029 13.7482 6.40429 13.7482C6.70153 13.7482 6.93798 13.7019 7.11368 13.6095Z" fill="#ADABAB"/>
<path d="M9.15037 12.4202H10.0016C10.167 12.4202 10.319 12.3847 10.4576 12.3135C10.5961 12.2424 10.7142 12.1482 10.8122 12.0308C10.9101 11.9135 10.9862 11.7793 11.0402 11.6282C11.0942 11.4771 11.1213 11.3215 11.1213 11.1615C11.1213 11.0087 11.0925 10.8567 11.0352 10.7055C10.9777 10.5544 10.8984 10.4193 10.797 10.3002C10.6957 10.1811 10.5748 10.0851 10.4348 10.0122C10.2946 9.93933 10.1416 9.90283 9.97624 9.90283H8.45117V13.6895H9.15037V12.4202ZM9.15037 10.5482H9.93064C9.99139 10.5482 10.0513 10.5615 10.1105 10.5882C10.1695 10.6148 10.2211 10.6548 10.265 10.7082C10.3089 10.7615 10.3444 10.8264 10.3714 10.9028C10.3985 10.9793 10.412 11.0655 10.412 11.1615C10.412 11.35 10.3689 11.4993 10.2828 11.6095C10.1966 11.7197 10.0894 11.7748 9.96104 11.7748H9.15042V10.5482H9.15037Z" fill="#ADABAB"/>
<path d="M11.8941 13.1562C12.0477 13.3305 12.2285 13.4673 12.4362 13.5668C12.644 13.6665 12.8659 13.7162 13.1024 13.7162C13.4841 13.7162 13.8185 13.5651 14.1057 13.2628V13.6895H14.6832V11.7428H13.3811V12.2815H14.1057V12.5482C13.8252 12.8931 13.5111 13.0655 13.1632 13.0655C13.0112 13.0655 12.8702 13.0327 12.7402 12.9668C12.6101 12.9011 12.4977 12.8113 12.4032 12.6975C12.3086 12.5838 12.2343 12.4495 12.1803 12.2948C12.1262 12.1402 12.0992 11.974 12.0992 11.7962C12.0992 11.6255 12.1237 11.4638 12.1727 11.3108C12.2216 11.158 12.2909 11.0228 12.3804 10.9055C12.4699 10.7882 12.578 10.6957 12.7048 10.6282C12.8314 10.5607 12.9708 10.5268 13.1228 10.5268C13.3152 10.5268 13.4934 10.5767 13.6573 10.6762C13.8211 10.7758 13.9486 10.9198 14.0398 11.1082L14.5617 10.7028C14.4401 10.4504 14.2585 10.2495 14.017 10.1002C13.7755 9.95084 13.4859 9.87617 13.1481 9.87617C12.8981 9.87617 12.6668 9.92684 12.454 10.0282C12.2412 10.1295 12.0563 10.2664 11.8992 10.4388C11.7421 10.6113 11.6187 10.8122 11.5293 11.0415C11.4398 11.2708 11.395 11.5153 11.395 11.7748C11.395 12.0487 11.4398 12.3038 11.5293 12.5402C11.6187 12.7767 11.7403 12.982 11.8941 13.1562Z" fill="#ADABAB"/>
</g>
<defs>
<clipPath id="clip0">
<rect x="0.00146484" width="19" height="20" rx="5" fill="white"/>
</clipPath>
</defs>
</svg>
