<svg width="21" height="20" viewBox="0 0 21 20" fill="none" xmlns="http://www.w3.org/2000/svg">
<g clip-path="url(#clip0)">
<path d="M13.9209 10.1024L21.0005 14.3649V5.65991L13.9209 10.1024Z" fill="#828282"/>
<path d="M0 5.65991V14.3649L7.07963 10.1024L0 5.65991Z" fill="#828282"/>
<path d="M19.6877 3.125H1.31268C0.657738 3.125 0.137988 3.59 0.0395508 4.18875L10.5002 10.7525L20.9608 4.18875C20.8624 3.59 20.3426 3.125 19.6877 3.125Z" fill="#828282"/>
<path d="M12.7181 10.8575L10.8609 12.0225C10.7507 12.0912 10.626 12.125 10.5 12.125C10.374 12.125 10.2493 12.0912 10.1391 12.0225L8.28187 10.8562L0.0419922 15.82C0.143055 16.4137 0.66018 16.875 1.31249 16.875H19.6875C20.3398 16.875 20.8569 16.4137 20.958 15.82L12.7181 10.8575Z" fill="#828282"/>
</g>
<defs>
<clipPath id="clip0">
<rect width="21" height="20" fill="white"/>
</clipPath>
</defs>
</svg>
