<svg width="21" height="21" viewBox="0 0 21 21" fill="none" xmlns="http://www.w3.org/2000/svg">
<path d="M0.845703 0.015625V20.3203H20.7989V0.015625H0.845703ZM12.4775 11.0222C12.1363 13.3031 10.4652 14.6107 8.30168 14.6107C5.87037 14.6107 3.89921 12.6048 3.89921 10.1307C3.89921 7.65717 5.87037 5.65129 8.30168 5.65129C9.47778 5.65129 10.5083 6.07839 11.2584 6.81977L9.99494 8.10547C9.56705 7.66679 8.9815 7.43297 8.30168 7.43297C6.8705 7.43297 5.71021 8.67487 5.71021 10.1306C5.71021 11.5877 6.8705 12.7936 8.30168 12.7936C9.5012 12.7936 10.4096 12.2035 10.6716 11.0222H8.30168V9.22307H12.4668C12.5168 9.51294 12.5421 9.81631 12.5421 10.1306C12.5421 10.4424 12.5199 10.7394 12.4775 11.0222ZM17.7643 10.4644H16.2217V12.0335H15.126V10.4644H13.5833V9.34867H15.126V7.77889H16.2217V9.34867H17.7643V10.4644Z" fill="#4F4F4F"/>
</svg>
