<svg width="19" height="20" viewBox="0 0 19 20" fill="none" xmlns="http://www.w3.org/2000/svg">
<path d="M17.371 6.94444H14.7777V4.32411L10.396 0H0V20H14.7778V17.096H17.371V6.94444H17.371ZM15.7876 15.4293H4.7043V8.61111H15.7876V15.4293Z" fill="#ADABAB"/>
<path d="M7.11221 13.6095C7.2878 13.5171 7.42207 13.3873 7.51501 13.2202C7.6079 13.0531 7.66865 12.8513 7.69741 12.6148C7.72607 12.3784 7.74042 12.1162 7.74042 11.8282V9.90283H7.04123V11.8282C7.04123 12.0415 7.03442 12.2273 7.02096 12.3855C7.00745 12.5438 6.97868 12.6762 6.93483 12.7828C6.89091 12.8895 6.82668 12.9687 6.74234 13.0202C6.6579 13.0717 6.54474 13.0975 6.40283 13.0975C6.25758 13.0975 6.12922 13.0762 6.01776 13.0335C5.90629 12.9908 5.82691 12.9518 5.77963 12.9162L5.62256 13.5135C5.83874 13.67 6.09883 13.7482 6.40283 13.7482C6.70007 13.7482 6.93651 13.7019 7.11221 13.6095Z" fill="#ADABAB"/>
<path d="M9.14915 12.4202H10.0004C10.1658 12.4202 10.3178 12.3847 10.4564 12.3135C10.5948 12.2424 10.713 12.1482 10.811 12.0308C10.9089 11.9135 10.985 11.7793 11.039 11.6282C11.093 11.4771 11.1201 11.3215 11.1201 11.1615C11.1201 11.0087 11.0913 10.8567 11.034 10.7055C10.9765 10.5544 10.8972 10.4193 10.7958 10.3002C10.6944 10.1811 10.5736 10.0851 10.4336 10.0122C10.2934 9.93933 10.1404 9.90283 9.97502 9.90283H8.44995V13.6895H9.14915V12.4202ZM9.14915 10.5482H9.92942C9.99016 10.5482 10.0501 10.5615 10.1092 10.5882C10.1683 10.6148 10.2199 10.6548 10.2638 10.7082C10.3077 10.7615 10.3431 10.8264 10.3702 10.9028C10.3972 10.9793 10.4108 11.0655 10.4108 11.1615C10.4108 11.35 10.3677 11.4993 10.2816 11.6095C10.1954 11.7197 10.0882 11.7748 9.95982 11.7748H9.1492V10.5482H9.14915Z" fill="#ADABAB"/>
<path d="M11.8927 13.1562C12.0464 13.3305 12.2271 13.4674 12.4348 13.5669C12.6426 13.6665 12.8646 13.7162 13.1011 13.7162C13.4827 13.7162 13.8172 13.5652 14.1044 13.2629V13.6896H14.6819V11.7429H13.3798V12.2816H14.1044V12.5482C13.8239 12.8931 13.5098 13.0656 13.1619 13.0656C13.0099 13.0656 12.8688 13.0327 12.7388 12.9669C12.6087 12.9011 12.4964 12.8114 12.4018 12.6976C12.3073 12.5838 12.233 12.4496 12.1789 12.2949C12.1249 12.1402 12.0978 11.9741 12.0978 11.7962C12.0978 11.6256 12.1223 11.4638 12.1714 11.3109C12.2203 11.1581 12.2895 11.0229 12.3791 10.9056C12.4686 10.7882 12.5767 10.6958 12.7034 10.6282C12.83 10.5607 12.9694 10.5269 13.1214 10.5269C13.3139 10.5269 13.492 10.5768 13.656 10.6762C13.8197 10.7758 13.9473 10.9198 14.0385 11.1082L14.5604 10.7029C14.4388 10.4504 14.2571 10.2496 14.0157 10.1002C13.7742 9.95089 13.4845 9.87622 13.1468 9.87622C12.8967 9.87622 12.6654 9.92689 12.4527 10.0282C12.2399 10.1296 12.0549 10.2664 11.8978 10.4389C11.7407 10.6114 11.6174 10.8122 11.5279 11.0416C11.4384 11.2709 11.3937 11.5154 11.3937 11.7749C11.3937 12.0487 11.4384 12.3038 11.5279 12.5402C11.6174 12.7767 11.739 12.9821 11.8927 13.1562Z" fill="#ADABAB"/>
</svg>
