<svg width="15" height="16" viewBox="0 0 15 16" fill="none" xmlns="http://www.w3.org/2000/svg">
<g clip-path="url(#clip0)">
<path d="M7.47714 7.68315C8.56384 7.68315 9.44794 6.79021 9.44794 5.69265C9.44794 4.59509 8.56384 3.70215 7.47714 3.70215C6.39042 3.70215 5.50635 4.59509 5.50635 5.69265C5.50635 6.79021 6.39042 7.68315 7.47714 7.68315ZM7.47714 4.33503C8.2183 4.33503 8.82129 4.94404 8.82129 5.69262C8.82129 6.44119 8.2183 7.05021 7.47714 7.05021C6.73598 7.05021 6.13299 6.44119 6.13299 5.69262C6.13299 4.94404 6.73598 4.33503 7.47714 4.33503Z" fill="#209cd7"/>
<path d="M14.8371 13.8945L13.3135 7.88181C13.2602 7.67175 13.0728 7.52485 12.8581 7.52485H11.2193C11.4869 6.96447 11.6284 6.34602 11.6284 5.70548C11.6284 4.58568 11.1967 3.53293 10.4127 2.74109C9.6287 1.94929 8.58634 1.51318 7.47762 1.51318C6.3689 1.51318 5.32657 1.94926 4.54258 2.74109C3.75859 3.53293 3.32683 4.58568 3.32683 5.70548C3.32683 6.34602 3.46833 6.9645 3.73596 7.52485H1.99405C1.77936 7.52485 1.59197 7.67178 1.53873 7.88181L0.0150491 13.8945C-0.0209516 14.0365 0.0100673 14.1874 0.0991133 14.3033C0.188128 14.4191 0.325175 14.4869 0.470368 14.4869H14.3819C14.5271 14.4869 14.6641 14.4191 14.7531 14.3033C14.8421 14.1874 14.8731 14.0365 14.8371 13.8945ZM4.67418 8.80273L7.14534 11.2986C7.15145 11.3047 7.158 11.3102 7.16433 11.3159V13.5375H4.02093L4.67418 8.80273ZM7.79098 11.3159C7.79734 11.3102 7.80388 11.3047 7.80996 11.2986L10.1906 8.89415L10.8313 13.5375H7.79098V11.3159ZM5.20726 3.41239C5.8137 2.79989 6.62 2.46255 7.47762 2.46255C8.33525 2.46255 9.14155 2.79986 9.74802 3.41239C10.3544 4.02489 10.6885 4.83925 10.6885 5.70548C10.6885 6.57169 10.3544 7.38605 9.74802 7.99858L7.47762 10.2917L5.20723 7.99858C4.6008 7.38608 4.26679 6.57169 4.26679 5.70548C4.26683 4.83922 4.6008 4.02489 5.20726 3.41239ZM2.35888 8.47421H4.08682L3.38824 13.5375H1.07577L2.35888 8.47421ZM11.464 13.5375L10.7654 8.47421H12.4933L13.7764 13.5375H11.464Z" fill="#209cd7"/>
</g>
<defs>
<clipPath id="clip0">
<rect width="14.8515" height="15" fill="white" transform="translate(0 0.5)"/>
</clipPath>
</defs>
</svg>
