<svg width="17" height="21" viewBox="0 0 17 21" fill="none" xmlns="http://www.w3.org/2000/svg">
<path d="M15.6805 14.6165C13.5373 13.6605 14.1813 10.8775 15.5743 9.41209C15.5992 9.38583 15.62 9.35901 15.6378 9.33196C15.8951 9.60153 16.369 9.27968 16.1962 8.90498C15.5516 7.50669 14.3127 6.35884 12.7028 6.18977C11.2636 6.03869 9.57029 6.59083 8.88378 7.927C7.8641 6.74723 6.23022 6.31788 4.70024 6.29456C3.9307 6.28291 2.73273 6.51796 2.20398 7.16663C-2.4849 8.47676 2.53288 25.6194 8.94755 19.2308C9.98695 20.2701 11.2468 20.9553 12.7422 20.2552C14.4906 19.4367 15.5405 16.8354 16.2796 15.2385C16.4777 14.8106 16.0193 14.4438 15.6805 14.6165ZM11.747 7.17908C11.6261 7.25761 11.5486 7.39081 11.5296 7.53646C11.4108 7.48881 11.292 7.44253 11.1733 7.3907C11.1478 7.37961 11.1229 7.37259 11.0982 7.36512C11.2971 7.27945 11.5134 7.21891 11.747 7.17908ZM3.29343 17.5805C3.48855 17.7875 3.68668 17.9844 3.88791 18.1669C4.13009 18.4285 4.37492 18.6879 4.62044 18.9465C4.12363 18.615 3.68103 18.139 3.29343 17.5805Z" fill="white"/>
<path d="M11.3357 0.585536C11.1319 0.187415 10.6306 0.340643 10.4904 0.663847C9.58431 0.521936 8.98832 1.86376 8.71051 2.49681C8.25787 3.52889 8.03749 4.69734 8.43351 5.75817C8.32361 6.01823 8.51043 6.37402 8.86562 6.26731C11.3292 5.52742 12.4881 2.83903 11.3357 0.585536Z" fill="white"/>
</svg>
