<svg width="16" height="16" viewBox="0 0 16 16" fill="none" xmlns="http://www.w3.org/2000/svg">
<g clip-path="url(#clip0)">
<path d="M11.2539 1.62025V0H10.0409V1.62025H5.93021V0H4.71721V1.62025H0V4.25316H15.9711V1.62025H11.2539Z" fill="#ADABAB"/>
<path d="M0 14.9872H11.3213V10.329H15.9711V5.46826H0V14.9872ZM10.6137 7.39231H12.6354V9.41763H10.6137V7.39231ZM6.97472 7.39231H8.99637V9.41763H6.97472V7.39231ZM6.97472 11.0379H8.99637V13.0632H6.97472V11.0379ZM3.33573 7.39231H5.35739V9.41763H3.33573V7.39231ZM3.33573 11.0379H5.35739V13.0632H3.33573V11.0379Z" fill="#ADABAB"/>
<path d="M12.5342 13.7397L15.3645 10.9043H12.5342V13.7397Z" fill="#ADABAB"/>
</g>
<defs>
<clipPath id="clip0">
<rect width="15.9711" height="16" fill="white"/>
</clipPath>
</defs>
</svg>
