<svg width="17" height="20" viewBox="0 0 17 20" fill="none" xmlns="http://www.w3.org/2000/svg">
<path d="M7.92307 8.29932C7.65338 8.29932 7.47874 8.32103 7.37573 8.34252V11.5227C7.47874 11.5445 7.64542 11.5445 7.79619 11.5445C8.89087 11.5515 9.60466 11.0035 9.60466 9.84272C9.61262 8.83308 8.96179 8.29932 7.92307 8.29932Z" fill="#D80000"/>
<path d="M3.25202 8.28491C3.00572 8.28491 2.83952 8.30662 2.7522 8.32811V9.76297C2.85544 9.78468 2.98208 9.79191 3.15673 9.79191C3.79936 9.79191 4.19593 9.4963 4.19593 8.99872C4.19593 8.55158 3.85508 8.28491 3.25202 8.28491Z" fill="#D80000"/>
<path d="M11.2527 0H0V20H16.0485V5.93195L10.3471 2.35304L11.2527 0ZM4.9017 10.1238C4.48921 10.4769 3.87866 10.6358 3.16488 10.6358C3.00591 10.6358 2.86335 10.6286 2.75214 10.6139V12.3516H1.55446V7.55672C1.92715 7.49882 2.45061 7.45562 3.18828 7.45562C3.9339 7.45562 4.46532 7.58544 4.82258 7.84509C5.16367 8.09026 5.39356 8.49399 5.39356 8.96986C5.39356 9.44595 5.21891 9.84967 4.9017 10.1238ZM11.6821 7.4918H14.9504V8.39311H12.8959V9.5034H14.8156V10.3973H12.8959V12.3516H11.6821V7.4918ZM10.8896 9.80625C10.8896 10.7365 10.5174 11.3782 10.0014 11.7749C9.43819 12.2003 8.58135 12.4025 7.53468 12.4025C6.90797 12.4025 6.46364 12.3661 6.16235 12.3303V7.55672C6.60668 7.4918 7.18562 7.45562 7.79665 7.45562C8.81172 7.45562 9.47027 7.62141 9.98601 7.97513C10.5408 8.34991 10.8896 8.94837 10.8896 9.80625Z" fill="#D80000"/>
<path d="M12.3788 0L11.6458 1.90656L16.0486 4.67034L12.3788 0Z" fill="#D80000"/>
</svg>
