<svg width="11" height="10" viewBox="0 0 11 10" fill="none" xmlns="http://www.w3.org/2000/svg">
<path d="M9.35741 9.28959C9.02874 7.27957 8.17145 5.29879 6.14889 4.6636C6.93493 4.21855 7.45666 3.42666 7.45666 2.52194C7.45666 1.13038 6.21554 0 4.68253 0C3.14951 0 1.90839 1.12829 1.90839 2.52194C1.90839 3.42457 2.43242 4.21855 3.21617 4.6636C1.1936 5.29879 0.334009 7.27957 0.00764009 9.28959C-0.0544159 9.6636 0.269654 10 0.685659 10H8.67479C9.0954 10 9.41947 9.6636 9.35741 9.28959ZM2.95415 2.52194C2.95415 1.65483 3.731 0.9486 4.68482 0.9486C4.91236 0.9486 5.09853 1.11784 5.09853 1.3247C5.09853 1.53155 4.91236 1.70079 4.68482 1.70079C4.18608 1.70079 3.78156 2.06853 3.78156 2.52194C3.78156 2.72879 3.5954 2.89804 3.36786 2.89804C3.13802 2.89804 2.95415 2.73088 2.95415 2.52194Z" fill="white"/>
</svg>
