<svg width="15" height="15" viewBox="0 0 15 15" fill="none" xmlns="http://www.w3.org/2000/svg">
<path d="M7.98782 13.8347L6.00854 11.8555L10.3811 7.48291L12.3604 9.46219L7.98782 13.8347Z" fill="#198AC6"/>
<path d="M7.76465 0.487305V2.81575H10.0931L7.76465 0.487305Z" fill="#198AC6"/>
<path d="M5.00683 11.4599H2.3311V10.472H5.99475L7.31199 9.15477H2.3311V8.16685H8.29991L10.5803 5.88649V3.80351H6.77676V0H0.668091V13.6992H4.19373L4.71081 11.9279L4.78171 11.685L5.00683 11.4599ZM2.3311 5.86169H8.91727V6.84962H2.3311V5.86169Z" fill="#198AC6"/>
<path d="M11.0796 6.78437L12.3527 5.51123L14.332 7.49051L13.0589 8.76365L11.0796 6.78437Z" fill="#198AC6"/>
<path d="M5.22287 13.6989L4.84314 14.9997L7.09768 14.3415L5.5013 12.7451L5.22287 13.6989Z" fill="#198AC6"/>
</svg>
