<svg width="19" height="15" viewBox="0 0 19 15" fill="none" xmlns="http://www.w3.org/2000/svg">
<path d="M15.6869 1.30902H14.2422C14.1402 0.573324 13.3839 0 12.4685 0H5.6466C4.73119 0 3.97489 0.573324 3.87286 1.30902H2.4281C1.6848 1.30902 1.08228 1.80793 1.08228 2.42339V4.73468C1.08228 5.35015 1.6848 5.84906 2.4281 5.84906H3.8607V6.51648C3.8607 7.04309 4.20283 7.53378 4.75362 7.7971L7.35529 9.04087V10.0622H7.13418C6.43345 10.0622 5.86338 10.5342 5.86338 11.1144V12.8373H4.56655C3.84644 12.8373 3.26061 13.3224 3.26061 13.9186C3.26061 14.5149 3.84644 15 4.56655 15H13.5485C14.2686 15 14.8545 14.5149 14.8545 13.9186C14.8545 13.3224 14.2686 12.8373 13.5485 12.8373H12.2516V11.1144C12.2516 10.5342 11.6815 10.0622 10.9808 10.0622H10.7597V9.04087L13.3613 7.7971C13.9121 7.53382 14.2543 7.04309 14.2543 6.51648V5.84906H15.6869C16.4302 5.84906 17.0327 5.35015 17.0327 4.73468V2.42339C17.0327 1.80797 16.4302 1.30902 15.6869 1.30902ZM2.57763 4.61086V2.54721H3.8607V4.61086H2.57763ZM15.5374 4.61086H14.2543V2.54721H15.5374V4.61086Z" fill="white"/>
</svg>
