<svg width="15" height="15" viewBox="0 0 15 15" fill="none" xmlns="http://www.w3.org/2000/svg">
<path d="M12.7601 13.9344C12.3119 10.9193 11.1429 7.94818 8.38484 6.9954C9.45672 6.32783 10.1682 5.13999 10.1682 3.78291C10.1682 1.69557 8.47573 0 6.38526 0C4.29479 0 2.60235 1.69244 2.60235 3.78291C2.60235 5.13686 3.31694 6.32783 4.38568 6.9954C1.62764 7.94818 0.455466 10.9193 0.0104183 13.9344C-0.0742035 14.4954 0.36771 15 0.93499 15H11.8293C12.4028 15 12.8447 14.4954 12.7601 13.9344ZM4.02839 3.78291C4.02839 2.48224 5.08773 1.4229 6.3884 1.4229C6.69868 1.4229 6.95254 1.67677 6.95254 1.98705C6.95254 2.29733 6.69868 2.55119 6.3884 2.55119C5.70829 2.55119 5.15668 3.1028 5.15668 3.78291C5.15668 4.09319 4.90281 4.34705 4.59253 4.34705C4.27912 4.34705 4.02839 4.09632 4.02839 3.78291Z" fill="white"/>
</svg>
