<svg width="15" height="16" viewBox="0 0 15 16" fill="none" xmlns="http://www.w3.org/2000/svg">
<path d="M12.9243 10.94C12.0182 10.1649 11.0986 9.69547 10.2035 10.4693L9.6691 10.937C9.27808 11.2765 8.55105 12.8629 5.74013 9.62933C2.92979 6.39987 4.60218 5.89704 4.99379 5.56045L5.53115 5.09216C6.42149 4.31655 6.08549 3.34016 5.44335 2.33508L5.05584 1.7263C4.41076 0.723573 3.70832 0.0650363 2.81564 0.839475L2.3333 1.26094C1.93876 1.54835 0.835932 2.4826 0.56842 4.25743C0.246469 6.38699 1.26208 8.82562 3.58891 11.5013C5.91281 14.1782 8.18813 15.5228 10.3434 15.4994C12.1347 15.4801 13.2164 14.5189 13.5548 14.1694L14.0389 13.7474C14.9292 12.9735 14.376 12.1856 13.4693 11.4088L12.9243 10.94Z" fill="#F2F2F2"/>
</svg>
