<svg width="16" height="16" viewBox="0 0 16 16" fill="none" xmlns="http://www.w3.org/2000/svg">
<path d="M4.5 9.8V8.6H8.49999V7.4H5.25V6.2H8.49999V0H3V16H8.49999V9.8H4.5Z" fill="#DEDDE0"/>
<path d="M14 8V4V0H8.5V6.2H11.75V7.4H8.5V8.6H12.5V9.8H8.5V16H14V12V8Z" fill="#CDCDD0"/>
<path d="M1 0V1.4H2V2.6H1V5.4H2V6.6H1V9.4H2V10.6H1V13.4H2V14.6H1V16H3V0H1Z" fill="#ACABB1"/>
<path d="M16 0H14V4H16V0Z" fill="#FFDA44"/>
<path d="M16 4H14V8H16V4Z" fill="#FF9811"/>
<path d="M16 8H14V12H16V8Z" fill="#FF5023"/>
<path d="M16 12H14V16H16V12Z" fill="#D80027"/>
<path d="M2 1.40002H0.999999H0V2.60002H0.999999H2V1.40002Z" fill="#565659"/>
<path d="M2 13.4H0.999999H0V14.6H0.999999H2V13.4Z" fill="#565659"/>
<path d="M2 9.40002H0.999999H0V10.6H0.999999H2V9.40002Z" fill="#565659"/>
<path d="M2 5.40002H0.999999H0V6.60002H0.999999H2V5.40002Z" fill="#565659"/>
<path d="M5.25 7.39995H8.5H11.75V6.19995H8.5H5.25V7.39995Z" fill="white"/>
<path d="M4.5 9.79998H8.5H12.5V8.59998H8.5H4.5V9.79998Z" fill="white"/>
</svg>
