<svg width="15" height="14" viewBox="0 0 15 14" fill="none" xmlns="http://www.w3.org/2000/svg">
<g clip-path="url(#clip0)">
<path d="M7.5 14C11.6421 14 15 10.866 15 7C15 3.13401 11.6421 0 7.5 0C3.35786 0 0 3.13401 0 7C0 10.866 3.35786 14 7.5 14Z" fill="#FFCF35"/>
<path d="M14.9998 7.00001C14.9998 6.71238 14.9808 6.42891 14.9447 6.15036L11.826 3.23956L8.97023 6.62125L6.78223 4.57911L2.23535 9.36877L3.26391 10.3288L3.05048 10.566L6.68558 13.9588C6.95306 13.9858 7.22464 14 7.49979 14C11.6419 14 14.9998 10.866 14.9998 7.00001Z" fill="#FFB344"/>
<path d="M11.8262 3.23941H10.5791V8.02894H11.8262V3.23941Z" fill="#005C83"/>
<path d="M11.8262 5.63034H10.5791V8.02921H11.8262V5.63034Z" fill="#00263F"/>
<path d="M11.8262 5.05231H10.5791V6.21625H11.8262V5.05231Z" fill="#008CC3"/>
<path d="M11.8262 5.63037H10.5791V6.21651H11.8262V5.63037Z" fill="#0074A3"/>
<path d="M10.9653 3.23956H7.2793V8.02923H8.82351L10.0774 9.22653V8.02923H10.9653V3.23956Z" fill="#0074A3"/>
<path d="M7.2793 5.63022V8.02922H8.82351L10.0774 9.22652V8.02922H10.9653V5.63022H7.2793Z" fill="#005C83"/>
<path d="M6.78224 4.57898H5.53516V9.36851H6.78224V4.57898Z" fill="#AE4E32"/>
<path d="M6.78224 6.98114H5.53516V9.3688H6.78224V6.98114Z" fill="#843826"/>
<path d="M6.78224 6.39188H5.53516V7.55581H6.78224V6.39188Z" fill="#FF9451"/>
<path d="M6.78224 6.98114H5.53516V7.55591H6.78224V6.98114Z" fill="#F7674F"/>
<path d="M5.9214 4.5791H2.23535V9.36877H3.05048V10.5661L4.3043 9.36877H5.9214V4.5791Z" fill="#FF6838"/>
<path d="M2.23535 6.98114V9.36877H3.05048V10.5661L4.3043 9.36877H5.9214V6.98114H2.23535Z" fill="#AE4E32"/>
</g>
<defs>
<clipPath id="clip0">
<rect width="15" height="14" fill="white"/>
</clipPath>
</defs>
</svg>
