<svg width="15" height="16" viewBox="0 0 15 16" fill="none" xmlns="http://www.w3.org/2000/svg">
<path d="M12.9243 10.9398C12.0182 10.1648 11.0986 9.69535 10.2035 10.4692L9.6691 10.9369C9.27808 11.2764 8.55105 12.8628 5.74013 9.62921C2.92979 6.39974 4.60218 5.89691 4.99379 5.56033L5.53115 5.09204C6.42149 4.31643 6.08549 3.34004 5.44335 2.33496L5.05584 1.72618C4.41076 0.723451 3.70832 0.0649142 2.81564 0.839353L2.3333 1.26082C1.93876 1.54823 0.835932 2.48248 0.56842 4.2573C0.246469 6.38687 1.26208 8.8255 3.58891 11.5012C5.91281 14.1781 8.18813 15.5227 10.3434 15.4993C12.1347 15.4799 13.2164 14.5188 13.5548 14.1693L14.0389 13.7473C14.9292 12.9734 14.376 12.1855 13.4693 11.4087L12.9243 10.9398Z" fill="#F2F2F2"/>
</svg>
