<svg width="15" height="13" viewBox="0 0 15 13" fill="none" xmlns="http://www.w3.org/2000/svg">
<path d="M7.55203 6.16997C8.64959 6.16997 9.54253 5.27703 9.54253 4.17947C9.54253 3.08191 8.64959 2.18896 7.55203 2.18896C6.45443 2.18896 5.56152 3.08191 5.56152 4.17947C5.56152 5.27703 6.45443 6.16997 7.55203 6.16997ZM7.55203 2.82184C8.3006 2.82184 8.90962 3.43086 8.90962 4.17944C8.90962 4.92801 8.3006 5.53703 7.55203 5.53703C6.80345 5.53703 6.19443 4.92801 6.19443 4.17944C6.19443 3.43086 6.80345 2.82184 7.55203 2.82184Z" fill="#B7B5B5"/>
<path d="M14.9851 12.3813L13.4462 6.36862C13.3925 6.15856 13.2032 6.01166 12.9864 6.01166H11.3311C11.6014 5.45129 11.7443 4.83284 11.7443 4.1923C11.7443 3.07249 11.3083 2.01974 10.5165 1.22791C9.72462 0.436107 8.67184 0 7.55203 0C6.43222 0 5.37947 0.436075 4.58764 1.22791C3.7958 2.01974 3.35973 3.07249 3.35973 4.1923C3.35973 4.83284 3.50264 5.45132 3.77295 6.01166H2.01362C1.79679 6.01166 1.60752 6.15859 1.55375 6.36862L0.0148297 12.3813C-0.021531 12.5233 0.00979809 12.6742 0.0997346 12.7901C0.18964 12.9059 0.328057 12.9737 0.474702 12.9737H14.5253C14.672 12.9737 14.8103 12.9059 14.9003 12.7901C14.9902 12.6742 15.0215 12.5233 14.9851 12.3813ZM4.72055 7.28954L7.21643 9.78539C7.2226 9.79156 7.22921 9.79697 7.23561 9.80273V12.0243H4.06077L4.72055 7.28954ZM7.86852 9.80276C7.87494 9.797 7.88155 9.79156 7.88769 9.78542L10.2922 7.38097L10.9392 12.0243H7.86852V9.80276ZM5.25897 1.8992C5.87146 1.28671 6.68583 0.949365 7.55203 0.949365C8.41823 0.949365 9.2326 1.28667 9.84513 1.8992C10.4576 2.5117 10.795 3.32607 10.795 4.1923C10.795 5.0585 10.4576 5.87287 9.84513 6.4854L7.55203 8.77849L5.25893 6.4854C4.64643 5.8729 4.30909 5.0585 4.30909 4.1923C4.30912 3.32604 4.64643 2.5117 5.25897 1.8992ZM2.3821 6.96103H4.12732L3.42175 12.0243H1.08616L2.3821 6.96103ZM11.5782 12.0243L10.8727 6.96103H12.6178L13.9138 12.0243H11.5782Z" fill="#B7B5B5"/>
</svg>
