<svg width="15" height="16" viewBox="0 0 15 16" fill="none" xmlns="http://www.w3.org/2000/svg">
<path d="M9.16198 10.9191C8.67387 11.0788 8.16735 11.1586 7.65161 11.1586C6.36226 11.1586 5.14966 10.6551 4.23484 9.74338C3.32309 8.83163 2.81963 7.61903 2.81963 6.32661C2.81963 5.03727 3.32309 3.8216 4.23484 2.90985C5.14966 2.00117 6.36226 1.49771 7.65161 1.49771C8.27786 1.49771 8.88877 1.61743 9.46897 1.85074C10.0676 2.09326 10.6079 2.45244 11.0684 2.91292C11.8972 3.74178 12.3946 4.83773 12.4713 6.00428C12.5296 6.89454 12.3424 7.77559 11.9402 8.55534L12.6002 9.21536C13.1344 8.34659 13.4414 7.32125 13.4414 6.22838C13.4414 3.06334 10.878 0.5 7.71301 0.5C6.83809 0.5 6.00616 0.696472 5.26632 1.04951C3.31081 1.95819 1.95393 3.93825 1.95393 6.23759V7.00505V7.18925L0.787377 9.41797C0.49267 9.97976 0.772028 10.4402 1.40749 10.4402H1.957V10.4525V11.4226V12.5585C1.957 13.2215 2.4973 13.7618 3.16039 13.7618L4.81198 13.5163L4.81505 15.1678V15.1801C4.82426 15.3919 5.00231 15.5332 5.22334 15.4932L11.1789 14.4403C11.403 14.4004 11.5872 14.1824 11.5872 13.9522V13.6912V13.4825V12.3221L9.8834 10.6183C9.65009 10.738 9.40757 10.8393 9.16198 10.9191Z" fill="#ADABAB"/>
<path d="M14.095 11.6283L11.3045 8.83782L11.1541 8.98825L11.0006 8.83475C12.2316 7.19544 12.0996 4.85927 10.6107 3.37039C8.97756 1.73722 6.32826 1.73722 4.69509 3.37039C3.06192 5.00356 3.06192 7.65285 4.69509 9.28603C6.18705 10.778 8.52322 10.9069 10.1595 9.6759L10.313 9.82939L10.1625 9.97982L12.953 12.7703C13.2692 13.0865 13.7819 13.0865 14.0981 12.7703C14.4082 12.4572 14.4082 11.9445 14.095 11.6283ZM9.92308 8.60144C8.6675 9.85702 6.63218 9.85702 5.3766 8.60144C4.12103 7.34587 4.12103 5.31054 5.3766 4.05497C6.63218 2.79939 8.6675 2.79939 9.92308 4.05497C11.1787 5.31361 11.1787 7.34894 9.92308 8.60144Z" fill="#ADABAB"/>
<path d="M7.65141 6.85458C7.94133 6.85458 8.17636 6.61956 8.17636 6.32964C8.17636 6.03971 7.94133 5.80469 7.65141 5.80469C7.36149 5.80469 7.12646 6.03971 7.12646 6.32964C7.12646 6.61956 7.36149 6.85458 7.65141 6.85458Z" fill="#ADABAB"/>
<path d="M9.27251 6.85458C9.56243 6.85458 9.79745 6.61956 9.79745 6.32964C9.79745 6.03971 9.56243 5.80469 9.27251 5.80469C8.98259 5.80469 8.74756 6.03971 8.74756 6.32964C8.74756 6.61956 8.98259 6.85458 9.27251 6.85458Z" fill="#ADABAB"/>
<path d="M6.03081 6.85458C6.32073 6.85458 6.55576 6.61956 6.55576 6.32964C6.55576 6.03971 6.32073 5.80469 6.03081 5.80469C5.74089 5.80469 5.50586 6.03971 5.50586 6.32964C5.50586 6.61956 5.74089 6.85458 6.03081 6.85458Z" fill="#ADABAB"/>
</svg>
