<svg width="79" height="16" viewBox="0 0 79 16" fill="none" xmlns="http://www.w3.org/2000/svg">
<path d="M6.05815 5.16592C6.49636 3.74784 8.50364 3.74784 8.94185 5.16592C9.13725 5.79826 9.7279 6.22949 10.3897 6.22949C11.8734 6.22949 12.5352 8.11244 11.3562 9.01309L11.2335 9.10683C10.7116 9.50557 10.4936 10.1875 10.6875 10.815L10.7511 11.0207C11.1818 12.4146 9.56906 13.5396 8.40969 12.6539C7.87262 12.2436 7.12738 12.2436 6.59031 12.6539C5.43094 13.5396 3.81818 12.4146 4.24892 11.0207L4.31248 10.815C4.5064 10.1875 4.28845 9.50557 3.76649 9.10683L3.64379 9.0131C2.46481 8.11244 3.12662 6.22949 4.61026 6.22949C5.2721 6.22949 5.86275 5.79826 6.05815 5.16592Z" fill="#F2C94C"/>
<path d="M70.0582 5.16592C70.4964 3.74784 72.5036 3.74784 72.9418 5.16592C73.1373 5.79826 73.7279 6.22949 74.3897 6.22949C75.8734 6.22949 76.5352 8.11244 75.3562 9.01309L75.2335 9.10683C74.7116 9.50557 74.4936 10.1875 74.6875 10.815L74.7511 11.0207C75.1818 12.4146 73.5691 13.5396 72.4097 12.6539C71.8726 12.2436 71.1274 12.2436 70.5903 12.6539C69.4309 13.5396 67.8182 12.4146 68.2489 11.0207L68.3125 10.815C68.5064 10.1875 68.2884 9.50557 67.7665 9.10683L67.6438 9.0131C66.4648 8.11244 67.1266 6.22949 68.6103 6.22949C69.2721 6.22949 69.8627 5.79826 70.0582 5.16592Z" fill="#F2C94C"/>
<path d="M54.0582 5.16592C54.4964 3.74784 56.5036 3.74784 56.9418 5.16592C57.1373 5.79826 57.7279 6.22949 58.3897 6.22949C59.8734 6.22949 60.5352 8.11244 59.3562 9.01309L59.2335 9.10683C58.7116 9.50557 58.4936 10.1875 58.6875 10.815L58.7511 11.0207C59.1818 12.4146 57.5691 13.5396 56.4097 12.6539C55.8726 12.2436 55.1274 12.2436 54.5903 12.6539C53.4309 13.5396 51.8182 12.4146 52.2489 11.0207L52.3125 10.815C52.5064 10.1875 52.2884 9.50557 51.7665 9.10683L51.6438 9.0131C50.4648 8.11244 51.1266 6.22949 52.6103 6.22949C53.2721 6.22949 53.8627 5.79826 54.0582 5.16592Z" fill="#F2C94C"/>
<path d="M38.0582 5.16592C38.4964 3.74784 40.5036 3.74784 40.9418 5.16592C41.1373 5.79826 41.7279 6.22949 42.3897 6.22949C43.8734 6.22949 44.5352 8.11244 43.3562 9.01309L43.2335 9.10683C42.7116 9.50557 42.4936 10.1875 42.6875 10.815L42.7511 11.0207C43.1818 12.4146 41.5691 13.5396 40.4097 12.6539C39.8726 12.2436 39.1274 12.2436 38.5903 12.6539C37.4309 13.5396 35.8182 12.4146 36.2489 11.0207L36.3125 10.815C36.5064 10.1875 36.2884 9.50557 35.7665 9.10683L35.6438 9.0131C34.4648 8.11244 35.1266 6.22949 36.6103 6.22949C37.2721 6.22949 37.8627 5.79826 38.0582 5.16592Z" fill="#F2C94C"/>
<path d="M22.0582 5.16592C22.4964 3.74784 24.5036 3.74784 24.9418 5.16592C25.1373 5.79826 25.7279 6.22949 26.3897 6.22949C27.8734 6.22949 28.5352 8.11244 27.3562 9.01309L27.2335 9.10683C26.7116 9.50557 26.4936 10.1875 26.6875 10.815L26.7511 11.0207C27.1818 12.4146 25.5691 13.5396 24.4097 12.6539C23.8726 12.2436 23.1274 12.2436 22.5903 12.6539C21.4309 13.5396 19.8182 12.4146 20.2489 11.0207L20.3125 10.815C20.5064 10.1875 20.2884 9.50557 19.7665 9.10683L19.6438 9.0131C18.4648 8.11244 19.1266 6.22949 20.6103 6.22949C21.2721 6.22949 21.8627 5.79826 22.0582 5.16592Z" fill="#F2C94C"/>
</svg>
