<svg width="13" height="14" viewBox="0 0 13 14" fill="none" xmlns="http://www.w3.org/2000/svg">
<path d="M12.1874 3.47095L7.74357 0.438704C7.37097 0.184487 6.74565 0 6.25665 0H1.1334C0.508453 0 0 0.415095 0 0.925409C9.44378e-05 1.0476 0.00788555 13.1471 0.00788555 13.2105C0.00788555 13.6727 0.397819 13.9955 0.956136 13.9955C1.31028 13.9955 11.7642 14 11.7642 14C12.374 14 12.8516 13.5888 12.8516 13.0639V4.6855C12.8516 4.24425 12.5722 3.73343 12.1874 3.47095ZM9.34552 8.9837C9.28933 9.07332 9.17303 9.12254 9.03449 9.12254H7.51584V12.1267C7.51584 12.321 7.3323 12.4897 7.09795 12.4897H5.79367C5.55932 12.4897 5.39098 12.321 5.39098 12.1267V9.12254H3.85746C3.71896 9.12254 3.60271 9.0734 3.54647 8.98382C3.49028 8.89424 3.50412 8.78677 3.58354 8.69272L6.14431 5.66318C6.21755 5.57653 6.32752 5.52736 6.44604 5.52736C6.56466 5.52736 6.67463 5.57735 6.74782 5.664L9.30836 8.69241C9.38788 8.78649 9.40176 8.89412 9.34552 8.9837ZM7.72284 4.42423C6.97093 4.42423 6.94921 3.8467 6.94921 3.78084V1.21216L11.8586 4.42423H7.72284Z" fill="white"/>
</svg>
