<svg width="36" height="24" viewBox="0 0 36 24" fill="none" xmlns="http://www.w3.org/2000/svg">
<path d="M34.6166 0.25293H1.49633C0.999267 0.25293 0.597412 0.662493 0.597412 1.16768V22.3662C0.597412 22.8714 0.999267 23.281 1.49633 23.281H34.6166C35.1137 23.281 35.5155 22.8714 35.5155 22.3662V1.16768C35.5155 0.662493 35.1137 0.25293 34.6166 0.25293ZM3.30097 7.21173H7.02771C7.53034 7.23123 7.93529 7.39418 8.07501 7.94089L8.88552 11.9076C8.08923 9.83269 6.17022 8.10635 3.27006 7.39166L3.30097 7.21173ZM7.8104 16.2586L5.6577 8.77449C7.20515 9.78235 8.52323 11.3816 8.98753 12.4945L9.23853 13.4187L11.5928 7.29792H14.1399L10.3545 16.2567L7.8104 16.2586ZM16.012 16.2649H13.6082L15.1112 7.28848H17.5161L16.012 16.2649ZM20.195 16.3995C19.1174 16.3882 18.0793 16.1712 17.5167 15.9201L17.8549 13.9113L18.1647 14.0541C18.9542 14.3895 19.4654 14.5254 20.428 14.5254C21.1186 14.5254 21.8586 14.2504 21.8654 13.649C21.8698 13.2558 21.5557 12.9752 20.6197 12.5348C19.7072 12.1057 18.4991 11.386 18.514 10.0969C18.527 8.35234 20.2011 7.13498 22.577 7.13498C23.5081 7.13498 24.2543 7.33001 24.7304 7.51183L24.4058 9.45772L24.1888 9.35392C23.7461 9.17273 23.1767 8.99783 22.3897 9.01041C21.4487 9.01041 21.0123 9.40928 21.0123 9.78235C21.0073 10.2026 21.5217 10.4794 22.3625 10.8959C23.7492 11.5364 24.3903 12.3133 24.3817 13.3344C24.3631 15.1966 22.7229 16.3995 20.195 16.3995ZM30.6123 16.2687C30.6123 16.2687 30.3928 15.2369 30.3199 14.9236C29.9699 14.9236 27.5168 14.9198 27.241 14.9198C27.1477 15.162 26.7359 16.2687 26.7359 16.2687H24.2117L27.7807 8.04281C28.0342 7.45835 28.4639 7.29792 29.0401 7.29792H30.8973L32.8429 16.2681L30.6123 16.2687Z" fill="white"/>
</svg>
