<svg width="21" height="22" viewBox="0 0 21 22" fill="none" xmlns="http://www.w3.org/2000/svg">
<path d="M9.05086 20.75C8.16919 20.75 7.33203 20.1991 6.84865 19.3324H11.2543C10.771 20.1991 9.93389 20.75 9.05086 20.75ZM16.132 17.1034H1.93179C2.07173 16.9785 2.20835 16.8509 2.33417 16.7201C2.60697 16.4365 2.85734 16.1112 3.03459 15.7008C3.21254 15.2887 3.29997 14.83 3.29997 14.2977V10.6378C3.31635 8.0248 5.07743 5.52503 7.66959 4.90866L8.21603 4.77872L8.24469 4.22544C8.24495 4.2228 8.24545 4.21798 8.2463 4.21123C8.24865 4.19252 8.25348 4.16055 8.26258 4.12001C8.28146 4.03592 8.31485 3.93229 8.36981 3.83586C8.45791 3.68127 8.61428 3.5 9.05086 3.5C9.46156 3.5 9.62305 3.67695 9.72193 3.85286C9.78076 3.9575 9.81712 4.06955 9.8381 4.1601C9.84823 4.20385 9.85385 4.23858 9.8567 4.25939C9.85789 4.26804 9.85856 4.27402 9.85887 4.27697L9.89501 4.82174L10.4325 4.95014C13.0367 5.57216 14.8121 8.03596 14.8236 10.6371V14.4181C14.8236 14.9483 14.909 15.4027 15.0884 15.8084C15.2675 16.2136 15.5208 16.5262 15.7935 16.7948C15.8995 16.8993 16.0142 17.0023 16.132 17.1034Z" fill="white" stroke="#828282" stroke-width="1.5"/>
<rect x="9.41357" y="0.5" width="11.5862" height="11.25" fill="#D80027"/>
<path d="M14.6383 10V9.274C14.807 9.26667 14.9463 9.24467 15.0563 9.208C15.1736 9.17133 15.2616 9.087 15.3203 8.955C15.3863 8.823 15.4193 8.61033 15.4193 8.317V3.906L14.2203 4.621L13.8243 3.961L16.3433 2.124H17.0033V8.196C17.0033 8.394 16.9996 8.58467 16.9923 8.768C16.9923 8.95133 16.985 9.09067 16.9703 9.186C17.0876 9.17133 17.2343 9.164 17.4103 9.164C17.5936 9.15667 17.722 9.153 17.7953 9.153V10H14.6383Z" fill="white"/>
</svg>
