<svg width="60" height="56" viewBox="0 0 60 56" fill="none" xmlns="http://www.w3.org/2000/svg">
<path d="M29.8891 26.8508C34.1961 26.8508 37.7001 23.1037 37.7001 18.498C37.7001 13.8923 34.1961 10.1453 29.8891 10.1453C25.582 10.1453 22.0781 13.8923 22.0781 18.498C22.0781 23.1037 25.582 26.8508 29.8891 26.8508ZM29.8891 12.801C32.8266 12.801 35.2165 15.3566 35.2165 18.4979C35.2165 21.6391 32.8266 24.1948 29.8891 24.1948C26.9516 24.1948 24.5617 21.6391 24.5617 18.4979C24.5617 15.3566 26.9516 12.801 29.8891 12.801Z" fill="#F2F2F2"/>
<path d="M59.0576 52.9156L53.0187 27.6847C52.8077 26.8032 52.065 26.1867 51.2141 26.1867H44.7187C45.7794 23.8352 46.3402 21.24 46.3402 18.5521C46.3402 13.8531 44.629 9.43542 41.5219 6.11264C38.4146 2.79 34.2833 0.959961 29.8891 0.959961C25.4948 0.959961 21.3637 2.78987 18.2564 6.11264C15.1491 9.43542 13.4379 13.8531 13.4379 18.5521C13.4379 21.24 13.9987 23.8354 15.0595 26.1867H8.15563C7.30474 26.1867 6.56201 26.8033 6.35103 27.6847L0.3121 52.9156C0.169416 53.5117 0.292355 54.145 0.645278 54.631C0.998077 55.117 1.54124 55.4015 2.1167 55.4015H57.2531C57.8286 55.4015 58.3716 55.117 58.7245 54.631C59.0773 54.145 59.2003 53.5117 59.0576 52.9156ZM18.778 31.5491L28.5721 42.0224C28.5963 42.0483 28.6223 42.071 28.6474 42.0952V51.4175H16.1889L18.778 31.5491ZM31.131 42.0953C31.1562 42.0712 31.1822 42.0483 31.2063 42.0226L40.6417 31.9327L43.1808 51.4176H31.131V42.0953ZM20.8908 8.9296C23.2943 6.35937 26.49 4.94379 29.8891 4.94379C33.2882 4.94379 36.4838 6.35924 38.8875 8.9296C41.291 11.4998 42.6148 14.9172 42.6148 18.5521C42.6148 22.187 41.291 25.6043 38.8875 28.1747L29.8891 37.7972L20.8907 28.1747C18.4871 25.6044 17.1634 22.187 17.1634 18.5521C17.1635 14.917 18.4871 11.4998 20.8908 8.9296ZM9.60159 30.1706H16.4501L13.6813 51.4176H4.51613L9.60159 30.1706ZM45.6884 51.4176L42.9196 30.1706H49.768L54.8534 51.4176H45.6884Z" fill="#F2F2F2"/>
</svg>
