<svg width="36" height="36" viewBox="0 0 36 36" fill="none" xmlns="http://www.w3.org/2000/svg">
<g clip-path="url(#clip0)">
<path d="M10.0098 16.2391C9.3557 16.2391 8.85431 16.453 8.85431 16.453L8.71582 17.2897C8.71582 17.2897 9.12942 17.1186 9.7557 17.1186C10.1112 17.1186 10.3708 17.1589 10.3708 17.4527C10.3708 17.6313 10.3393 17.6974 10.3393 17.6974C10.3393 17.6974 10.0593 17.6741 9.92942 17.6741C9.10407 17.6741 8.2373 18.0315 8.2373 19.1129C8.2373 19.9648 8.80547 20.1592 9.15848 20.1592C9.83174 20.1592 10.1223 19.715 10.1372 19.7138L10.1056 20.0849H10.9458L11.3205 17.4111C11.3198 16.2756 10.3474 16.2391 10.0098 16.2391ZM9.5387 19.3457C9.24256 19.3457 9.16528 19.1161 9.16528 18.9789C9.16528 18.7134 9.30686 18.3938 10.0061 18.3938C10.1693 18.3945 10.1866 18.4115 10.2138 18.4165C10.2324 18.5801 10.1137 19.3457 9.5387 19.3457Z" fill="#F2F2F2"/>
<path d="M13.0443 17.1356C13.1784 17.1356 13.6959 17.179 13.6959 17.179L13.8165 16.3222C13.8165 16.3222 13.4814 16.246 12.9361 16.246C12.2301 16.246 11.5141 16.5329 11.5141 17.5137C11.5141 18.626 12.7086 18.5128 12.7086 18.9821C12.7086 19.2942 12.3747 19.32 12.1175 19.32C11.6718 19.32 11.2712 19.1652 11.2699 19.1715L11.1426 20.0214C11.1655 20.0277 11.4127 20.1397 12.2134 20.1397C12.4279 20.1397 13.6563 20.1963 13.6563 18.906C13.6563 17.6993 12.5194 17.9378 12.5194 17.4527C12.5194 17.2111 12.7042 17.1356 13.0443 17.1356Z" fill="#F2F2F2"/>
<path d="M15.0515 17.245H15.5566L15.6784 16.3315H15.2023L15.2994 15.7653H14.3454C14.3244 15.7861 13.7822 18.9588 13.7822 19.3438C13.7822 19.9169 14.0981 20.1711 14.5427 20.1667C14.8907 20.1642 15.1621 20.066 15.258 20.039L15.3773 19.2136C15.3118 19.2136 15.2159 19.2425 15.1312 19.2425C14.7992 19.2425 14.7628 19.062 14.7838 18.9292L15.0515 17.245Z" fill="#F2F2F2"/>
<path d="M19.0503 11.9453H17.3476C17.1189 12.2598 16.9037 12.5945 16.709 12.9217H19.7464C19.5356 12.5807 19.3025 12.2548 19.0503 11.9453Z" fill="#F2F2F2"/>
<path d="M32.3357 22.9286C32.3171 22.9003 32.3016 22.8789 32.2892 22.8657C32.2824 22.8594 32.2737 22.8525 32.2625 22.8493C32.2892 22.8474 32.3115 22.8374 32.3276 22.8204C32.3431 22.8034 32.3518 22.7833 32.3518 22.76C32.3518 22.7436 32.3468 22.7279 32.3375 22.7134C32.3282 22.699 32.3146 22.6883 32.2979 22.6826C32.2824 22.6763 32.2557 22.6732 32.2192 22.6732H32.1113V22.9909H32.1621V22.8562H32.1913C32.2086 22.8562 32.2229 22.86 32.2309 22.8676C32.2439 22.8782 32.2625 22.9028 32.2842 22.9412L32.3115 22.9915H32.3741L32.3357 22.9286ZM32.2229 22.8141H32.1609V22.7185H32.2192C32.2433 22.7185 32.2594 22.7203 32.2687 22.7241C32.2786 22.7279 32.2848 22.7336 32.2904 22.7405C32.2954 22.748 32.2979 22.7562 32.2979 22.765C32.2979 22.7795 32.2929 22.7921 32.2824 22.8009C32.2718 22.809 32.2514 22.8141 32.2229 22.8141Z" fill="#F2F2F2"/>
<path d="M20.2629 13.8798H16.1782C15.9173 14.3825 15.7442 14.7625 15.6953 14.8569H20.6499C20.538 14.5209 20.4094 14.1956 20.2629 13.8798Z" fill="#F2F2F2"/>
<path d="M7.06819 15.4659L6.12785 18.3033L6.07901 15.4659H4.68673L3.92383 20.0894H4.84439L5.42491 16.604L5.51023 20.0894H6.16742L7.39338 16.604L6.84995 20.0894H7.82677L8.57917 15.4659H7.06819Z" fill="#F2F2F2"/>
<path d="M25.4768 16.2391C24.8215 16.2391 24.3207 16.453 24.3207 16.453L24.1816 17.2897C24.1816 17.2897 24.5959 17.1186 25.2215 17.1186C25.577 17.1186 25.8373 17.1589 25.8373 17.4527C25.8373 17.6313 25.8045 17.6974 25.8045 17.6974C25.8045 17.6974 25.5251 17.6741 25.394 17.6741C24.5693 17.6741 23.7031 18.0315 23.7031 19.1129C23.7031 19.9648 24.2719 20.1592 24.6243 20.1592C25.2969 20.1592 25.5875 19.715 25.603 19.7138L25.5714 20.0849H26.411L26.7857 17.4111C26.7875 16.2756 25.8144 16.2391 25.4768 16.2391ZM25.007 19.3457C24.7102 19.3457 24.6336 19.1161 24.6336 18.9789C24.6336 18.7134 24.7751 18.3938 25.4744 18.3938C25.637 18.3945 25.6543 18.4115 25.6821 18.4165C25.7 18.5801 25.5807 19.3457 25.007 19.3457Z" fill="#F2F2F2"/>
<path d="M32.3668 19.6634C32.3414 19.6156 32.3042 19.5791 32.2577 19.5539C32.2119 19.5281 32.1648 19.5156 32.1152 19.5156C32.0675 19.5162 32.0198 19.5288 31.9727 19.5539C31.9262 19.5791 31.8903 19.6156 31.8642 19.6634C31.8382 19.7106 31.8252 19.7597 31.8252 19.8106C31.8252 19.8616 31.8382 19.91 31.8642 19.9566C31.8896 20.0031 31.9256 20.0403 31.9714 20.0667C32.0179 20.0925 32.0656 20.1057 32.1152 20.1057C32.166 20.1057 32.2144 20.0925 32.2596 20.0667C32.3055 20.0403 32.3414 20.0031 32.3668 19.9566C32.3934 19.91 32.4052 19.8616 32.4052 19.8106C32.4052 19.7584 32.3928 19.7093 32.3668 19.6634ZM32.3265 19.932C32.3055 19.9711 32.2757 20.0006 32.2367 20.0239C32.1982 20.0453 32.1586 20.0566 32.1171 20.0566C32.0749 20.0566 32.0347 20.0453 31.9968 20.0239C31.9578 20.0019 31.9287 19.9717 31.9064 19.932C31.8841 19.8924 31.8742 19.8521 31.8742 19.81C31.8742 19.7678 31.8847 19.727 31.9076 19.6873C31.9293 19.6483 31.9584 19.6181 31.9981 19.5961C32.0378 19.5741 32.0768 19.5646 32.1171 19.5646C32.1573 19.5646 32.197 19.5747 32.2348 19.5961C32.2745 19.6181 32.3036 19.6477 32.3253 19.6873C32.347 19.727 32.3587 19.7678 32.3587 19.81C32.3587 19.8521 32.3482 19.893 32.3265 19.932Z" fill="#F2F2F2"/>
<path d="M32.2132 19.9107C32.1953 19.8811 32.1791 19.8604 32.1674 19.8478C32.1599 19.8409 32.1519 19.8352 32.1407 19.8314C32.1674 19.8295 32.1891 19.8195 32.2052 19.8025C32.2207 19.7861 32.23 19.7647 32.23 19.7421C32.23 19.7264 32.225 19.71 32.2151 19.6955C32.2052 19.6817 32.1922 19.671 32.1767 19.6647C32.1612 19.6584 32.1339 19.6553 32.0973 19.6553H31.9883V19.9724H32.0391V19.8377H32.0682C32.0862 19.8377 32.1004 19.8415 32.1091 19.8484C32.1221 19.8597 32.1395 19.8836 32.1624 19.9233L32.1891 19.973H32.2517L32.2132 19.9107ZM32.1017 19.7943H32.0403V19.6981H32.0973C32.1221 19.6981 32.1382 19.6999 32.1482 19.7031C32.1562 19.7075 32.1637 19.7119 32.1686 19.7201C32.1742 19.7283 32.1767 19.7352 32.1767 19.7459C32.1767 19.7597 32.1711 19.7717 32.1618 19.7805C32.15 19.7912 32.1308 19.7943 32.1017 19.7943Z" fill="#F2F2F2"/>
<path d="M28.7196 16.285C28.2924 16.285 27.9752 16.8783 27.9752 16.8783L28.0606 16.3328H27.1715L26.5762 20.0963H27.5555C27.8343 18.4882 27.885 17.1841 28.5471 17.4225C28.664 16.8009 28.7765 16.56 28.9032 16.2976C28.9032 16.2982 28.8439 16.285 28.7196 16.285Z" fill="#F2F2F2"/>
<path d="M31.1803 15.4709L30.9745 16.7701C30.9745 16.7701 30.6159 16.2649 30.0533 16.2649C29.1785 16.2655 28.4502 17.3382 28.4502 18.57C28.4502 19.3659 28.8391 20.1454 29.6329 20.1454C30.2048 20.1454 30.5213 19.7396 30.5213 19.7396L30.4799 20.0862H31.4078L32.1374 15.4691L31.1803 15.4709ZM29.9704 19.2017C29.6267 19.2017 29.466 18.9085 29.466 18.448C29.466 17.6949 29.798 17.1985 30.2177 17.1985C30.5602 17.1992 30.7364 17.4389 30.7364 18.0038C30.7364 18.5166 30.4873 19.2017 29.9704 19.2017Z" fill="#F2F2F2"/>
<path d="M34.7243 6.25293H1.604C1.10693 6.25293 0.705078 6.66249 0.705078 7.16768V28.3662C0.705078 28.8714 1.10693 29.281 1.604 29.281H34.7243C35.2213 29.281 35.6232 28.8714 35.6232 28.3662V7.16768C35.6232 6.66249 35.2213 6.25293 34.7243 6.25293ZM32.4881 22.9746C32.4621 23.0224 32.4269 23.0589 32.3812 23.0847C32.3354 23.1105 32.2872 23.1237 32.2377 23.1237C32.187 23.1237 32.1388 23.1105 32.0931 23.0847C32.0479 23.0589 32.0121 23.0224 31.9855 22.9746C31.9601 22.9286 31.9471 22.8796 31.9471 22.8286C31.9471 22.7776 31.9601 22.7292 31.9861 22.6814C32.0114 22.6336 32.0485 22.5977 32.0943 22.5719C32.1407 22.5474 32.1876 22.5342 32.2371 22.5342C32.2859 22.5342 32.3329 22.5474 32.3787 22.5719C32.425 22.5977 32.4615 22.6336 32.4869 22.6814C32.5128 22.7292 32.5252 22.7783 32.5252 22.8286C32.5252 22.8789 32.5141 22.9299 32.4881 22.9746ZM33.136 17.7673C33.1373 22.8034 29.1274 26.8877 24.1777 26.889C21.8631 26.8896 19.7524 25.9969 18.1623 24.5304C16.5722 25.9944 14.4658 26.8865 12.1549 26.8865C7.20833 26.8865 3.19349 22.8015 3.19349 17.7673C3.19349 12.7531 7.1768 8.68011 12.0974 8.6474C12.1165 8.6474 12.1357 8.6474 12.1549 8.6474C14.4658 8.6474 16.5728 9.5395 18.1629 11.0035C19.7524 9.53887 21.8606 8.64614 24.1734 8.64551C29.123 8.64362 33.136 12.726 33.1373 17.7629C33.136 17.7641 33.136 17.7647 33.136 17.7673Z" fill="#F2F2F2"/>
<path d="M17.2451 23.5332C17.5289 23.8868 17.8294 24.224 18.1613 24.5297C18.1688 24.5228 18.1768 24.5165 18.1842 24.5102C18.1842 24.5102 18.1836 24.5102 18.1836 24.5096H18.1855C18.5119 24.207 18.8167 23.8811 19.0955 23.5332H17.2451Z" fill="#F2F2F2"/>
<path d="M18.465 18.5279C18.465 18.5279 18.5905 17.8988 18.5905 17.6427C18.5905 17.0029 18.2777 16.2228 17.2304 16.2228C16.2709 16.2234 15.5605 17.2753 15.5605 18.4644C15.5605 19.8365 16.4502 20.1624 17.2088 20.1624C17.9086 20.1624 18.2165 20.0026 18.2165 20.0026L18.3847 19.0664C18.3847 19.0664 17.8524 19.3055 17.3714 19.3055C16.3469 19.3055 16.5262 18.5279 16.5262 18.5279H18.465ZM17.2335 17.0941C17.772 17.0941 17.6725 17.71 17.6725 17.7591H16.6134C16.6134 17.6956 16.7136 17.0941 17.2335 17.0941Z" fill="#F2F2F2"/>
<path d="M22.9404 16.3517C23.4257 16.3517 23.8158 16.6292 23.8158 16.6292L23.9716 15.6005C23.9716 15.6005 23.3942 15.3627 22.8971 15.3627C21.796 15.3627 20.7246 16.3354 20.7246 18.1617C20.7246 19.3728 21.3027 20.1724 22.4415 20.1724C22.7629 20.1724 23.2761 20.0397 23.2761 20.0397L23.4467 18.9802C23.4467 18.9802 22.9793 19.2187 22.6578 19.2187C21.9803 19.218 21.7088 18.6921 21.7088 18.1284C21.7088 16.9815 22.2912 16.3517 22.9404 16.3517Z" fill="#F2F2F2"/>
<path d="M16.0488 21.6175C16.204 21.9566 16.3845 22.2793 16.578 22.5939H19.7576C19.9505 22.2806 20.1243 21.9547 20.2794 21.6175H16.0488Z" fill="#F2F2F2"/>
<path d="M20.707 16.2862C20.2798 16.2862 19.9633 16.8795 19.9633 16.8795L20.0492 16.334H19.1608L18.5654 20.0975H19.5447C19.8223 18.4901 19.8742 17.1852 20.5364 17.4237C20.6526 16.8015 20.7645 16.5605 20.8912 16.2975C20.8912 16.2975 20.8319 16.285 20.707 16.2862Z" fill="#F2F2F2"/>
</g>
<defs>
<clipPath id="clip0">
<rect width="34.9181" height="35.5332" fill="white" transform="translate(0.705078)"/>
</clipPath>
</defs>
</svg>
