<svg width="15" height="15" viewBox="0 0 15 15" fill="none" xmlns="http://www.w3.org/2000/svg">
<g clip-path="url(#clip0)">
<path d="M11.8164 3.86594C12.0343 3.86594 12.0957 3.57124 11.8992 3.48222L4.22789 0.0809155C3.76128 -0.127829 3.21179 0.0809155 3.00305 0.55059L0.316999 6.57348C0.108255 7.04008 0.316999 7.58957 0.786674 7.79832L2.33384 8.46753C2.52723 8.55348 2.74826 8.41227 2.74826 8.20046V5.64334C2.74826 4.66408 3.54333 3.86901 4.52258 3.86901H11.8164V3.86594Z" fill="white"/>
<path d="M13.8241 5.15967H4.51967C4.00088 5.15967 3.58032 5.58023 3.58032 6.09902V12.6714C3.58032 13.1902 4.00088 13.6107 4.51967 13.6107H5.76907C5.73837 13.4266 5.72302 13.2393 5.72302 13.049C5.72302 12.8341 5.74451 12.6253 5.78135 12.4197H4.77446V9.27316H13.5724V12.4166H12.5625C12.5993 12.6223 12.6208 12.831 12.6208 13.0459C12.6208 13.2362 12.6054 13.4235 12.5747 13.6077H13.8241C14.3429 13.6077 14.7635 13.1871 14.7635 12.6683V6.09902C14.7635 5.58023 14.3429 5.15967 13.8241 5.15967ZM13.5724 7.33613H4.77446V6.35074H13.5724V7.33613Z" fill="white"/>
<path d="M9.17334 10.2773C7.84106 10.2773 6.7605 11.3579 6.7605 12.6902C6.7605 14.0224 7.84106 15.103 9.17334 15.103C10.5056 15.103 11.5862 14.0224 11.5862 12.6902C11.5862 11.3579 10.5056 10.2773 9.17334 10.2773ZM9.86711 13.6418C9.76273 13.7707 9.62459 13.8567 9.46497 13.8996C9.39436 13.9181 9.36366 13.9549 9.36673 14.0286C9.3698 14.0992 9.36673 14.1698 9.36673 14.2435C9.36673 14.3079 9.33297 14.3417 9.27157 14.3417C9.19483 14.3448 9.11808 14.3448 9.04134 14.3417C8.9738 14.3417 8.9431 14.3018 8.9431 14.2373C8.9431 14.1851 8.9431 14.1329 8.9431 14.0808C8.9431 13.9672 8.93697 13.961 8.82645 13.9426C8.68524 13.9211 8.5471 13.8874 8.41817 13.826C8.31687 13.7769 8.30459 13.7523 8.33529 13.6449C8.35678 13.565 8.37827 13.4852 8.40282 13.4085C8.43045 13.3164 8.45501 13.3072 8.54096 13.3502C8.68524 13.4238 8.83566 13.4668 8.99529 13.4852C9.09659 13.4975 9.1979 13.4883 9.29306 13.4453C9.4711 13.3686 9.49873 13.1629 9.34831 13.0401C9.29613 12.9971 9.24087 12.9664 9.17948 12.9419C9.02292 12.8743 8.86022 12.8222 8.71594 12.7331C8.4765 12.5919 8.32608 12.3955 8.3445 12.1038C8.36292 11.7754 8.55017 11.5728 8.85101 11.4623C8.9738 11.4162 8.97687 11.4193 8.97687 11.2904C8.97687 11.2474 8.97687 11.2013 8.97687 11.1584C8.97994 11.0601 8.99529 11.0448 9.09352 11.0417C9.12422 11.0417 9.15492 11.0417 9.18255 11.0417C9.39129 11.0417 9.39129 11.0417 9.39129 11.2505C9.39129 11.3978 9.39129 11.3978 9.53864 11.4193C9.64915 11.4377 9.75659 11.4684 9.86097 11.5144C9.91929 11.539 9.94078 11.5789 9.92236 11.6403C9.8978 11.7293 9.87324 11.8214 9.84255 11.9074C9.81492 11.9903 9.78729 12.0025 9.70748 11.9657C9.54478 11.8859 9.37594 11.8552 9.1979 11.8644C9.15185 11.8675 9.1058 11.8736 9.06283 11.892C8.90934 11.9596 8.88171 12.1315 9.01371 12.2358C9.08124 12.288 9.15492 12.3279 9.23473 12.3617C9.37287 12.417 9.50794 12.4722 9.63994 12.5459C10.0452 12.77 10.1587 13.2888 9.86711 13.6418Z" fill="white"/>
</g>
<defs>
<clipPath id="clip0">
<rect width="15" height="15" fill="white"/>
</clipPath>
</defs>
</svg>
