<svg width="25" height="25" viewBox="0 0 25 25" fill="none" xmlns="http://www.w3.org/2000/svg">
<g clip-path="url(#clip0)">
<path d="M12.5 25C19.4036 25 25 19.4036 25 12.5C25 5.59644 19.4036 0 12.5 0C5.59644 0 0 5.59644 0 12.5C0 19.4036 5.59644 25 12.5 25Z" fill="#FFD93B"/>
<path d="M25 12.5C25 19.4062 19.4023 25 12.5 25C8.57031 25 5.0625 23.1875 2.76953 20.3477C4.91406 22.082 7.64453 23.1172 10.6172 23.1172C17.5195 23.1172 23.1172 17.5234 23.1172 10.6172C23.1172 7.64453 22.082 4.91406 20.3477 2.76953C23.1836 5.0625 25 8.57031 25 12.5Z" fill="#F4C534"/>
<path d="M17.0984 12.9773C18.1819 12.9773 19.0602 12.0991 19.0602 11.0156C19.0602 9.93219 18.1819 9.05389 17.0984 9.05389C16.015 9.05389 15.1367 9.93219 15.1367 11.0156C15.1367 12.0991 16.015 12.9773 17.0984 12.9773Z" fill="#3E4347"/>
<path d="M17.8109 9.79507C17.5112 9.66214 17.1984 9.71168 17.1123 9.90572C17.0263 10.0998 17.1995 10.3649 17.4993 10.4978C17.799 10.6307 18.1118 10.5812 18.1978 10.3871C18.2839 10.1931 18.1106 9.92801 17.8109 9.79507Z" fill="#5A5F63"/>
<path d="M7.90118 12.9773C8.9846 12.9773 9.8629 12.0991 9.8629 11.0156C9.8629 9.93219 8.9846 9.05389 7.90118 9.05389C6.81775 9.05389 5.93945 9.93219 5.93945 11.0156C5.93945 12.0991 6.81775 12.9773 7.90118 12.9773Z" fill="#3E4347"/>
<path d="M8.61266 9.79477C8.3129 9.66183 8.00014 9.71137 7.91408 9.90542C7.82802 10.0995 8.00125 10.3645 8.301 10.4975C8.60075 10.6304 8.91352 10.5809 8.99958 10.3868C9.08564 10.1928 8.91241 9.92771 8.61266 9.79477Z" fill="#5A5F63"/>
<path d="M7.37976 17.4344C7.14382 17.2125 7.13288 16.8414 7.35476 16.6063C7.57663 16.3711 7.94694 16.3594 8.18288 16.5813C10.604 18.8602 14.3962 18.8602 16.8173 16.5813C17.0532 16.3594 17.4235 16.3711 17.6454 16.6063C17.8673 16.8422 17.8563 17.2125 17.6204 17.4344C14.7493 20.1375 10.2509 20.1375 7.37976 17.4344Z" fill="#3E4347"/>
</g>
<defs>
<clipPath id="clip0">
<rect width="25" height="25" rx="5" fill="white"/>
</clipPath>
</defs>
</svg>
