<svg width="15" height="15" viewBox="0 0 15 15" fill="none" xmlns="http://www.w3.org/2000/svg">
<path d="M9.84375 0.9375H8.82562C8.6325 0.391875 8.11125 0 7.5 0C6.88875 0 6.3675 0.391875 6.17344 0.9375H5.15625C4.8975 0.9375 4.6875 1.1475 4.6875 1.40625V3.28125C4.6875 3.54 4.8975 3.75 5.15625 3.75H9.84375C10.1025 3.75 10.3125 3.54 10.3125 3.28125V1.40625C10.3125 1.1475 10.1025 0.9375 9.84375 0.9375Z" fill="#F2F2F2"/>
<path d="M12.1875 1.875H11.25V3.28125C11.25 4.05656 10.6191 4.6875 9.84375 4.6875H5.15625C4.38094 4.6875 3.75 4.05656 3.75 3.28125V1.875H2.8125C2.29594 1.875 1.875 2.29594 1.875 2.8125V14.0625C1.875 14.5884 2.28656 15 2.8125 15H12.1875C12.7134 15 13.125 14.5884 13.125 14.0625V2.8125C13.125 2.28656 12.7134 1.875 12.1875 1.875ZM7.36312 10.1756L5.48813 12.0506C5.39625 12.1416 5.27625 12.1875 5.15625 12.1875C5.03625 12.1875 4.91625 12.1416 4.82437 12.0506L3.88687 11.1131C3.70406 10.9303 3.70406 10.6331 3.88687 10.4503C4.06969 10.2675 4.36688 10.2675 4.54969 10.4503L5.15625 11.0559L6.69938 9.51281C6.88219 9.33 7.17938 9.33 7.36219 9.51281C7.545 9.69563 7.54594 9.99187 7.36312 10.1756ZM7.36312 6.42562L5.48813 8.30062C5.39625 8.39156 5.27625 8.4375 5.15625 8.4375C5.03625 8.4375 4.91625 8.39156 4.82437 8.30062L3.88687 7.36312C3.70406 7.18031 3.70406 6.88312 3.88687 6.70031C4.06969 6.5175 4.36688 6.5175 4.54969 6.70031L5.15625 7.30594L6.69938 5.76281C6.88219 5.58 7.17938 5.58 7.36219 5.76281C7.545 5.94562 7.54594 6.24188 7.36312 6.42562ZM10.7812 11.25H8.90625C8.6475 11.25 8.4375 11.04 8.4375 10.7812C8.4375 10.5225 8.6475 10.3125 8.90625 10.3125H10.7812C11.04 10.3125 11.25 10.5225 11.25 10.7812C11.25 11.04 11.04 11.25 10.7812 11.25ZM10.7812 7.5H8.90625C8.6475 7.5 8.4375 7.29 8.4375 7.03125C8.4375 6.7725 8.6475 6.5625 8.90625 6.5625H10.7812C11.04 6.5625 11.25 6.7725 11.25 7.03125C11.25 7.29 11.04 7.5 10.7812 7.5Z" fill="#F2F2F2"/>
</svg>
