<svg width="21" height="21" viewBox="0 0 21 21" fill="none" xmlns="http://www.w3.org/2000/svg">
<path d="M19.0017 0.37793H1.1712C0.58492 0.37793 0.109863 0.86157 0.109863 1.45797V19.6026C0.109863 20.199 0.58492 20.6826 1.1712 20.6826H19.0017C19.588 20.6826 20.0631 20.199 20.0631 19.6026V1.45797C20.0631 0.86157 19.588 0.37793 19.0017 0.37793ZM11.3626 14.2784C10.3365 14.2784 9.37176 13.7142 9.04168 13.0736C9.04168 13.0736 8.48979 15.3004 8.37389 15.7302C7.96251 17.249 6.7528 18.769 6.65919 18.8937C6.59317 18.9801 6.44862 18.9531 6.43355 18.8381C6.40744 18.6446 6.09859 16.728 6.46178 15.1649C6.64369 14.3798 7.68359 9.89781 7.68359 9.89781C7.68359 9.89781 7.38047 9.28068 7.38047 8.36805C7.38047 6.9357 8.19686 5.86603 9.21256 5.86603C10.0765 5.86603 10.4936 6.52615 10.4936 7.31739C10.4936 8.20107 9.94064 9.52261 9.65535 10.7472C9.41698 11.773 10.1601 12.6091 11.154 12.6091C12.9536 12.6091 14.1654 10.2568 14.1654 7.46989C14.1654 5.35172 12.7644 3.76557 10.2138 3.76557C7.33314 3.76557 5.53671 5.95243 5.53671 8.39526C5.53671 9.23726 5.78125 9.83171 6.16396 10.2909C6.3393 10.5022 6.36413 10.5871 6.30045 10.8297C6.25397 11.0079 6.15038 11.4356 6.10686 11.6051C6.0434 11.8503 5.84853 11.938 5.63096 11.8473C4.30428 11.296 3.68573 9.81724 3.68573 8.15463C3.68573 5.40896 5.96146 2.11614 10.4745 2.11614C14.1013 2.11614 16.4881 4.78643 16.4881 7.65349C16.4876 11.4453 14.4157 14.2784 11.3626 14.2784Z" fill="white"/>
</svg>
