<svg width="22" height="21" viewBox="0 0 22 21" fill="none" xmlns="http://www.w3.org/2000/svg">
<path fill-rule="evenodd" clip-rule="evenodd" d="M12.63 5.77051C12.4154 5.77051 12.2427 5.93406 12.2427 6.14264C12.2427 6.35046 12.4154 6.51776 12.63 6.51776C12.8454 6.51776 13.0175 6.35046 13.0175 6.14264C13.0174 5.93406 12.8454 5.77051 12.63 5.77051Z" fill="white"/>
<path fill-rule="evenodd" clip-rule="evenodd" d="M8.90152 5.77051C8.68692 5.77051 8.51416 5.93406 8.51416 6.14264C8.51416 6.35046 8.68692 6.51776 8.90152 6.51776C9.11613 6.51776 9.28893 6.35046 9.28893 6.14264C9.28893 5.93406 9.11617 5.77051 8.90152 5.77051Z" fill="white"/>
<path fill-rule="evenodd" clip-rule="evenodd" d="M0.290039 0.362793V20.6675H21.2409V0.362793H0.290039ZM6.34567 12.5579C6.34567 13.0186 5.95861 13.3968 5.48093 13.3968H5.44455C4.96687 13.3968 4.57981 13.0186 4.57981 12.5579V8.90924C4.57981 8.44929 4.96692 8.07117 5.44455 8.07117H5.48093C5.95552 8.07117 6.34567 8.44933 6.34567 8.90924V12.5579ZM14.7711 13.9648C14.7711 14.3902 14.4111 14.7331 13.976 14.7331H13.1259V16.7056C13.1259 17.1656 12.7388 17.5437 12.2611 17.5437H12.2248C11.7502 17.5437 11.36 17.1686 11.36 16.7056V14.7331H10.1716V16.7056C10.1716 17.1656 9.78451 17.5437 9.3061 17.5437H9.2705C8.79204 17.5437 8.40498 17.1686 8.40498 16.7056V14.7331H7.55571C7.11675 14.7331 6.75985 14.3902 6.75985 13.9648V8.20621H14.7711V13.9648ZM14.7866 7.85733H6.74516C6.73895 7.78079 6.73278 7.70502 6.73278 7.62849C6.73278 6.37999 7.55571 5.28978 8.77118 4.71206L8.09689 3.70142C8.05429 3.63988 8.0729 3.5521 8.13948 3.51083C8.20606 3.46656 8.29663 3.48459 8.33844 3.5521L9.03751 4.59501C9.56087 4.38719 10.1469 4.27013 10.767 4.27013C11.3841 4.27013 11.9709 4.38719 12.4942 4.59501L13.1956 3.5521C13.2382 3.48459 13.3257 3.46656 13.3923 3.51083C13.4589 3.5521 13.4767 3.63988 13.4349 3.70142L12.7597 4.71202C13.976 5.28974 14.7982 6.3799 14.7982 7.62844C14.7982 7.70497 14.792 7.78075 14.7866 7.85733ZM16.9512 12.5579C16.9512 13.0186 16.5641 13.3968 16.0864 13.3968H16.05C15.5755 13.3968 15.1853 13.0186 15.1853 12.5579V8.90924C15.1853 8.44929 15.5723 8.07117 16.05 8.07117H16.0864C16.5618 8.07117 16.9512 8.44933 16.9512 8.90924V12.5579Z" fill="white"/>
</svg>
