<svg width="21" height="21" viewBox="0 0 21 21" fill="none" xmlns="http://www.w3.org/2000/svg">
<g clip-path="url(#clip0)">
<rect width="19.9532" height="20.3047" transform="translate(0.763672 0.015625)" fill="white"/>
<path d="M19.6555 0.015625H1.82501C1.23873 0.015625 0.763672 0.499266 0.763672 1.09566V19.2403C0.763672 19.8367 1.23873 20.3203 1.82501 20.3203H19.6555C20.2418 20.3203 20.7169 19.8367 20.7169 19.2403V1.09566C20.7169 0.499266 20.2418 0.015625 19.6555 0.015625ZM12.0164 13.9161C10.9903 13.9161 10.0256 13.3519 9.69549 12.7112C9.69549 12.7112 9.1436 14.9381 9.0277 15.3679C8.61632 16.8867 7.40661 18.4067 7.31299 18.5314C7.24698 18.6178 7.10243 18.5908 7.08735 18.4758C7.06124 18.2823 6.75239 16.3657 7.11559 14.8026C7.2975 14.0174 8.3374 9.53551 8.3374 9.53551C8.3374 9.53551 8.03428 8.91837 8.03428 8.00574C8.03428 6.5734 8.85067 5.50373 9.86637 5.50373C10.7303 5.50373 11.1474 6.16385 11.1474 6.95508C11.1474 7.83877 10.5944 9.1603 10.3092 10.3848C10.0708 11.4107 10.8139 12.2468 11.8078 12.2468C13.6074 12.2468 14.8192 9.89451 14.8192 7.10758C14.8192 4.98941 13.4183 3.40327 10.8676 3.40327C7.98695 3.40327 6.19052 5.59013 6.19052 8.03296C6.19052 8.87496 6.43505 9.46941 6.81777 9.92864C6.99311 10.1399 7.01794 10.2248 6.95426 10.4674C6.90777 10.6456 6.80419 11.0733 6.76067 11.2428C6.69721 11.488 6.50234 11.5757 6.28477 11.485C4.95809 10.9337 4.33954 9.45494 4.33954 7.79233C4.33954 5.04665 6.61527 1.75384 11.1283 1.75384C14.7551 1.75384 17.1419 4.42412 17.1419 7.29119C17.1414 11.083 15.0695 13.9161 12.0164 13.9161Z" fill="#4F4F4F"/>
</g>
<defs>
<clipPath id="clip0">
<rect width="19.9532" height="20.3047" fill="white" transform="translate(0.763672 0.015625)"/>
</clipPath>
</defs>
</svg>
