<svg width="16" height="15" viewBox="0 0 16 15" fill="none" xmlns="http://www.w3.org/2000/svg">
<g clip-path="url(#clip0)">
<path d="M9.21155 10.4191C8.72079 10.5788 8.21151 10.6586 7.69297 10.6586C6.39662 10.6586 5.17743 10.1551 4.25763 9.24338C3.34093 8.33163 2.83473 7.11903 2.83473 5.82661C2.83473 4.53727 3.34093 3.3216 4.25763 2.40985C5.17743 1.50117 6.39662 0.997708 7.69297 0.997708C8.32263 0.997708 8.93685 1.11743 9.52021 1.35074C10.1221 1.59326 10.6653 1.95244 11.1283 2.41292C11.9617 3.24178 12.4617 4.33773 12.5389 5.50428C12.5975 6.39454 12.4092 7.27559 12.0049 8.05534L12.6685 8.71536C13.2056 7.84659 13.5142 6.82125 13.5142 5.72838C13.5142 2.56334 10.9369 0 7.7547 0C6.87503 0 6.03858 0.196472 5.29472 0.549507C3.32858 1.45819 1.96432 3.43825 1.96432 5.73759V6.50505V6.68925L0.791434 8.91797C0.495125 9.47976 0.776001 9.94024 1.41492 9.94024H1.96741V9.95252V10.9226V12.0585C1.96741 12.7215 2.51064 13.2618 3.17734 13.2618L4.83791 13.0163L4.84099 14.6678V14.6801C4.85025 14.8919 5.02927 15.0332 5.25151 14.9932L11.2394 13.9403C11.4647 13.9004 11.6499 13.6824 11.6499 13.4522V13.1912V12.9825V11.8221L9.9369 10.1183C9.70232 10.238 9.45848 10.3393 9.21155 10.4191Z" fill="#ADABAB"/>
<path d="M14.1716 11.1283L11.3659 8.33779L11.2147 8.48822L11.0603 8.33472C12.298 6.69541 12.1653 4.35924 10.6683 2.87036C9.02629 1.23718 6.3626 1.23718 4.72055 2.87036C3.0785 4.50353 3.0785 7.15282 4.72055 8.78599C6.22061 10.278 8.56948 10.4069 10.2146 9.17587L10.3689 9.32936L10.2177 9.47978L13.0234 12.2703C13.3413 12.5865 13.8567 12.5865 14.1747 12.2703C14.4864 11.9572 14.4864 11.4445 14.1716 11.1283ZM9.97695 8.10141C8.71455 9.35699 6.66816 9.35699 5.40576 8.10141C4.14336 6.84584 4.14336 4.81051 5.40576 3.55494C6.66816 2.29936 8.71455 2.29936 9.97695 3.55494C11.2394 4.81358 11.2394 6.84891 9.97695 8.10141Z" fill="#ADABAB"/>
<path d="M7.69284 6.35458C7.98434 6.35458 8.22064 6.11956 8.22064 5.82964C8.22064 5.53971 7.98434 5.30469 7.69284 5.30469C7.40134 5.30469 7.16504 5.53971 7.16504 5.82964C7.16504 6.11956 7.40134 6.35458 7.69284 6.35458Z" fill="#ADABAB"/>
<path d="M9.32272 6.35458C9.61422 6.35458 9.85052 6.11956 9.85052 5.82964C9.85052 5.53971 9.61422 5.30469 9.32272 5.30469C9.03123 5.30469 8.79492 5.53971 8.79492 5.82964C8.79492 6.11956 9.03123 6.35458 9.32272 6.35458Z" fill="#ADABAB"/>
<path d="M6.0632 6.35458C6.3547 6.35458 6.591 6.11956 6.591 5.82964C6.591 5.53971 6.3547 5.30469 6.0632 5.30469C5.7717 5.30469 5.5354 5.53971 5.5354 5.82964C5.5354 6.11956 5.7717 6.35458 6.0632 6.35458Z" fill="#ADABAB"/>
</g>
<defs>
<clipPath id="clip0">
<rect width="15.0815" height="15" fill="white"/>
</clipPath>
</defs>
</svg>
