<svg width="20" height="16" viewBox="0 0 20 16" fill="none" xmlns="http://www.w3.org/2000/svg">
<path d="M3.30714 8.42384H6.02468C5.48747 7.46927 4.5722 6.24205 3.01917 4.93876C2.71629 4.68459 2.30946 4.53882 1.90288 4.53882C1.47542 4.53882 1.05653 4.68908 0.657804 4.9855C-0.585503 5.90968 0.262354 7.0515 0.551833 7.37949C0.934347 7.81288 1.33471 8.42346 1.68753 9.14999C2.06106 8.70891 2.64795 8.42384 3.30714 8.42384Z" fill="#E78F1C"/>
<path d="M19.3422 4.9855C18.9434 4.68912 18.5246 4.53882 18.0971 4.53882C17.6906 4.53882 17.2837 4.68459 16.9808 4.93876C15.4277 6.24205 14.5125 7.46927 13.9753 8.42384H16.6929C17.3519 8.42384 17.9386 8.70876 18.3121 9.14961C18.665 8.42316 19.0655 7.81288 19.4481 7.37945C19.7376 7.0515 20.5855 5.90964 19.3422 4.9855Z" fill="#E78F1C"/>
<path d="M17.8945 12.7255V10.2751C17.8945 9.67436 17.3555 9.18555 16.693 9.18555H3.30719C2.64469 9.18555 2.10571 9.67436 2.10571 10.2751V12.7255C2.10571 13.3263 2.64469 13.815 3.30719 13.815H16.693C17.3555 13.815 17.8945 13.3263 17.8945 12.7255Z" fill="#E78F1C"/>
<path d="M15.1841 14.5769L15.3823 15.9999H16.3932L16.5914 14.5769H15.1841Z" fill="#E78F1C"/>
<path d="M3.40894 14.5769L3.60714 15.9999H4.61805L4.81626 14.5769H3.40894Z" fill="#E78F1C"/>
<path d="M13.0374 8.42386C13.6131 7.29133 14.6262 5.87677 16.4102 4.3796C16.6618 4.16843 16.9538 4.00929 17.2681 3.90755C16.1375 1.62359 13.3063 0 9.99994 0C6.69361 0 3.86186 1.6234 2.7312 3.9074C3.04567 4.00914 3.33784 4.16832 3.58964 4.3796C5.37364 5.87673 6.38674 7.29125 6.96246 8.42386H13.0374Z" fill="#E78F1C"/>
</svg>
