<svg width="15" height="15" viewBox="0 0 15 15" fill="none" xmlns="http://www.w3.org/2000/svg">
<g clip-path="url(#clip0)">
<path d="M7.47714 7.18315C8.56384 7.18315 9.44794 6.29021 9.44794 5.19265C9.44794 4.09509 8.56384 3.20215 7.47714 3.20215C6.39042 3.20215 5.50635 4.09509 5.50635 5.19265C5.50635 6.29021 6.39042 7.18315 7.47714 7.18315ZM7.47714 3.83503C8.2183 3.83503 8.82129 4.44404 8.82129 5.19262C8.82129 5.94119 8.2183 6.55021 7.47714 6.55021C6.73598 6.55021 6.13299 5.94119 6.13299 5.19262C6.13299 4.44404 6.73598 3.83503 7.47714 3.83503Z" fill="#F2F2F2"/>
<path d="M14.8371 13.3945L13.3135 7.38181C13.2602 7.17175 13.0728 7.02485 12.8581 7.02485H11.2193C11.4869 6.46447 11.6284 5.84602 11.6284 5.20548C11.6284 4.08568 11.1967 3.03293 10.4127 2.24109C9.6287 1.44929 8.58634 1.01318 7.47762 1.01318C6.3689 1.01318 5.32657 1.44926 4.54258 2.24109C3.75859 3.03293 3.32683 4.08568 3.32683 5.20548C3.32683 5.84602 3.46833 6.4645 3.73596 7.02485H1.99405C1.77936 7.02485 1.59197 7.17178 1.53873 7.38181L0.0150491 13.3945C-0.0209516 13.5365 0.0100673 13.6874 0.0991133 13.8033C0.188128 13.9191 0.325175 13.9869 0.470368 13.9869H14.3819C14.5271 13.9869 14.6641 13.9191 14.7531 13.8033C14.8421 13.6874 14.8731 13.5365 14.8371 13.3945ZM4.67418 8.30273L7.14534 10.7986C7.15145 10.8047 7.158 10.8102 7.16433 10.8159V13.0375H4.02093L4.67418 8.30273ZM7.79098 10.8159C7.79734 10.8102 7.80388 10.8047 7.80996 10.7986L10.1906 8.39415L10.8313 13.0375H7.79098V10.8159ZM5.20726 2.91239C5.8137 2.29989 6.62 1.96255 7.47762 1.96255C8.33525 1.96255 9.14155 2.29986 9.74802 2.91239C10.3544 3.52489 10.6885 4.33925 10.6885 5.20548C10.6885 6.07169 10.3544 6.88605 9.74802 7.49858L7.47762 9.79168L5.20723 7.49858C4.6008 6.88608 4.26679 6.07169 4.26679 5.20548C4.26683 4.33922 4.6008 3.52489 5.20726 2.91239ZM2.35888 7.97421H4.08682L3.38824 13.0375H1.07577L2.35888 7.97421ZM11.464 13.0375L10.7654 7.97421H12.4933L13.7764 13.0375H11.464Z" fill="#F2F2F2"/>
</g>
<defs>
<clipPath id="clip0">
<rect width="14.8515" height="15" fill="white"/>
</clipPath>
</defs>
</svg>
