<svg width="20" height="20" viewBox="0 0 20 20" fill="none" xmlns="http://www.w3.org/2000/svg">
<path d="M14.5831 0H5.4165C4.72615 0 4.1665 0.559648 4.1665 1.25C4.1665 1.94035 4.72615 2.5 5.4165 2.5H14.5832C15.2735 2.5 15.8332 1.94035 15.8332 1.25C15.8332 0.559648 15.2735 0 14.5831 0Z" fill="#455A64"/>
<path d="M14.5833 18.3331H5.41668C5.18656 18.3331 5 18.1466 5 17.9165V14.429C4.99996 13.3474 5.46684 12.3186 6.28082 11.6065L7.75832 10.3131C7.93137 10.1615 7.94867 9.89822 7.79699 9.72518C7.78496 9.71146 7.77203 9.69854 7.75832 9.6865L6.28082 8.39318C5.46684 7.68107 4.99996 6.65221 5 5.57068V2.08318C5 1.85307 5.18656 1.6665 5.41668 1.6665H14.5834C14.8135 1.6665 15 1.85307 15 2.08318V5.57068C15.0001 6.65221 14.5332 7.68107 13.7192 8.39318L12.2417 9.6865C12.0687 9.83818 12.0514 10.1014 12.203 10.2745C12.2151 10.2882 12.228 10.3011 12.2417 10.3131L13.7192 11.6065C14.5332 12.3186 15.0001 13.3474 15 14.429V17.9165C15 18.1466 14.8134 18.3331 14.5833 18.3331Z" fill="#455A64"/>
<path d="M5.8335 17.5H14.1668V14.4292C14.1658 13.5875 13.8012 12.7873 13.1668 12.2342L11.6893 10.9409C11.1697 10.4863 11.117 9.69664 11.5715 9.17703C11.6081 9.1352 11.6475 9.09582 11.6893 9.05922L13.1668 7.7659C13.8012 7.21281 14.1658 6.41258 14.1668 5.5709V2.5H5.8335V5.57082C5.83451 6.4125 6.19908 7.21273 6.83349 7.76582L8.31099 9.05914C8.83037 9.51395 8.88271 10.3037 8.42795 10.823C8.39158 10.8646 8.35252 10.9036 8.31099 10.94L6.83349 12.2342C6.19908 12.7873 5.83451 13.5875 5.8335 14.4292V17.5Z" fill="#ECEFF1"/>
<path d="M12.4686 6.924C12.4042 6.76818 12.2522 6.66654 12.0836 6.6665H7.91693C7.68682 6.66607 7.49994 6.85232 7.49951 7.08244C7.49932 7.19338 7.54338 7.29982 7.62193 7.37818L9.70525 9.4615C9.86795 9.62416 10.1317 9.62416 10.2944 9.4615L12.3778 7.37818C12.4971 7.25908 12.533 7.07982 12.4686 6.924Z" fill="#FFC107"/>
<path d="M14.5831 17.5H5.4165C4.72615 17.5 4.1665 18.0596 4.1665 18.75C4.1665 19.4404 4.72615 20 5.4165 20H14.5832C15.2735 20 15.8332 19.4404 15.8332 18.75C15.8332 18.0596 15.2735 17.5 14.5831 17.5Z" fill="#455A64"/>
<path d="M10.2802 13.0253C10.1156 12.8762 9.86306 12.8825 9.70599 13.0394L5.8335 16.9111V17.5003H14.1668V16.5586L10.2802 13.0253Z" fill="#FFC107"/>
</svg>
