<svg width="36" height="33" viewBox="0 0 36 33" fill="none" xmlns="http://www.w3.org/2000/svg">
<g clip-path="url(#clip0)">
<path d="M18 33C27.9411 33 36 25.6127 36 16.5C36 7.3873 27.9411 0 18 0C8.05887 0 0 7.3873 0 16.5C0 25.6127 8.05887 33 18 33Z" fill="#FFCF35"/>
<path d="M35.9999 16.5C35.9999 15.822 35.9543 15.1538 35.8676 14.4972L28.3827 7.63608L21.529 15.6072L16.2777 10.7936L5.36523 22.0835L7.83377 24.3463L7.32154 24.9057L16.0458 32.9029C16.6877 32.9664 17.3395 33 17.9999 33C27.941 33 35.9999 25.6127 35.9999 16.5Z" fill="#FFB344"/>
<path d="M28.3826 7.63577H25.3896V18.9254H28.3826V7.63577Z" fill="#005C83"/>
<path d="M28.3826 13.2715H25.3896V18.926H28.3826V13.2715Z" fill="#00263F"/>
<path d="M28.3826 11.909H25.3896V14.6526H28.3826V11.909Z" fill="#008CC3"/>
<path d="M28.3826 13.2715H25.3896V14.6532H28.3826V13.2715Z" fill="#0074A3"/>
<path d="M26.3167 7.63608H17.4702V18.926H21.1763L24.1855 21.7482V18.926H26.3167V7.63608Z" fill="#0074A3"/>
<path d="M17.4702 13.2712V18.926H21.1763L24.1855 21.7482V18.926H26.3167V13.2712H17.4702Z" fill="#005C83"/>
<path d="M16.2777 10.7933H13.2847V22.0829H16.2777V10.7933Z" fill="#AE4E32"/>
<path d="M16.2777 16.4555H13.2847V22.0836H16.2777V16.4555Z" fill="#843826"/>
<path d="M16.2777 15.0666H13.2847V17.8101H16.2777V15.0666Z" fill="#FF9451"/>
<path d="M16.2777 16.4555H13.2847V17.8103H16.2777V16.4555Z" fill="#F7674F"/>
<path d="M14.2117 10.7936H5.36523V22.0835H7.32154V24.9057L10.3307 22.0835H14.2117V10.7936Z" fill="#FF6838"/>
<path d="M5.36523 16.4555V22.0835H7.32154V24.9057L10.3307 22.0835H14.2117V16.4555H5.36523Z" fill="#AE4E32"/>
</g>
<defs>
<clipPath id="clip0">
<rect width="36" height="33" fill="white"/>
</clipPath>
</defs>
</svg>
