<svg width="14" height="16" viewBox="0 0 14 16" fill="none" xmlns="http://www.w3.org/2000/svg">
<path d="M13.5546 0.241024C13.5504 0.238761 13.5463 0.236544 13.5423 0.234272C13.5212 0.222721 13.4996 0.212306 13.4775 0.202659C13.4703 0.199499 13.4628 0.19685 13.4554 0.193901C13.4404 0.187871 13.4253 0.181941 13.4099 0.17677C13.401 0.173772 13.3919 0.171175 13.3828 0.168433C13.3685 0.164134 13.3542 0.160072 13.3397 0.156512C13.3301 0.154151 13.3204 0.152035 13.3106 0.149975C13.2962 0.146958 13.2818 0.144268 13.2673 0.14189C13.2574 0.140312 13.2476 0.138769 13.2377 0.137483C13.2227 0.135556 13.2076 0.134111 13.1924 0.132912C13.183 0.132155 13.1735 0.131207 13.164 0.130741C13.1472 0.129875 13.1304 0.129708 13.1135 0.129697C13.1056 0.129688 13.0978 0.129352 13.0898 0.129543C13.0651 0.130121 13.0403 0.131453 13.0156 0.133856C13.013 0.134112 13.0106 0.134593 13.008 0.134858C12.9858 0.137197 12.9635 0.14018 12.9414 0.143942L12.9363 0.144653C12.9194 0.147638 12.9026 0.151257 12.8858 0.155103C12.8835 0.155655 12.8811 0.156016 12.8788 0.156568C12.8578 0.16153 12.8371 0.167241 12.8164 0.173541C12.8098 0.175545 12.8033 0.177912 12.7967 0.180098C12.7827 0.184674 12.7687 0.189422 12.7549 0.194612C12.7471 0.197524 12.7395 0.200733 12.7318 0.203862C12.7193 0.20896 12.7069 0.214229 12.6946 0.219805C12.6868 0.22338 12.6791 0.227027 12.6713 0.230819C12.6592 0.236737 12.6473 0.242942 12.6355 0.249374C12.6282 0.253323 12.6208 0.257282 12.6136 0.261447C12.601 0.268707 12.5887 0.276435 12.5764 0.284288C12.5704 0.288145 12.5644 0.291786 12.5585 0.295758C12.5407 0.307817 12.5232 0.320368 12.5063 0.333711L5.60213 5.78116L3.19815 9.79408C3.148 9.79844 3.09514 9.8052 3.03951 9.815C2.41242 9.92558 1.77422 10.3478 1.14269 11.0699C-0.207977 12.6144 0.183475 15.1275 0.20082 15.2338L0.257425 15.5808L0.687088 15.5017C0.818755 15.4775 3.92648 14.8903 5.27729 13.3457C6.24142 12.2432 6.18898 11.5814 6.01515 11.2406L9.93109 8.16387L13.8073 1.03432C13.8473 0.960801 13.8707 0.885024 13.8785 0.810033C13.8844 0.753826 13.8814 0.69805 13.8702 0.644059C13.8365 0.482115 13.7275 0.336092 13.5546 0.241024ZM5.78613 10.492L4.2174 9.62855L5.90339 6.81413L8.58713 8.29129L5.78613 10.492Z" fill="#77AD1F"/>
</svg>
