<svg width="21" height="21" viewBox="0 0 21 21" fill="none" xmlns="http://www.w3.org/2000/svg">
<g clip-path="url(#clip0)">
<path fill-rule="evenodd" clip-rule="evenodd" d="M11.7323 9.1347V9.10547C11.7263 9.11527 11.7181 9.12507 11.7129 9.1347H11.7323Z" fill="#ADABAB"/>
<path fill-rule="evenodd" clip-rule="evenodd" d="M0.926758 0.015625V20.3203H20.88V0.015625H0.926758ZM7.13295 16.8842H4.1726V7.82093H7.13295V16.8842ZM5.65277 6.58391H5.63322C4.64016 6.58391 3.99648 5.8877 3.99648 5.0175C3.99648 4.1282 4.65897 3.45172 5.67216 3.45172C6.68556 3.45172 7.30832 4.1282 7.3277 5.0175C7.3277 5.8877 6.68556 6.58391 5.65277 6.58391ZM17.8102 16.8842H14.8491V12.0353C14.8491 10.8175 14.4213 9.98613 13.3495 9.98613C12.5311 9.98613 12.0447 10.5459 11.8304 11.0881C11.7525 11.2817 11.7322 11.551 11.7322 11.8226V16.8843H8.77048C8.77048 16.8843 8.81016 8.67123 8.77048 7.82098H11.7322V9.10526C12.1257 8.48911 12.8279 7.6082 14.4009 7.6082C16.3496 7.6082 17.8102 8.90324 17.8102 11.6869V16.8842Z" fill="#4F4F4F"/>
</g>
<defs>
<clipPath id="clip0">
<rect width="19.9532" height="20.3047" fill="white" transform="translate(0.926758 0.015625)"/>
</clipPath>
</defs>
</svg>
