<svg width="16" height="16" viewBox="0 0 16 16" fill="none" xmlns="http://www.w3.org/2000/svg">
<path d="M14.595 6.87999L13.8772 6.42868C13.5949 6.25108 13.2746 6.15765 12.9485 6.15765H10.875C10.6182 6.15765 10.4099 5.93036 10.4099 5.65003V1.45711C10.4099 0.969318 10.0475 0.573853 9.60052 0.573853H9.59779C9.24963 0.573853 8.94033 0.817128 8.83019 1.17776L7.9372 3.72711C7.73032 4.31756 7.36035 4.82315 6.87844 5.17376C5.59053 6.11087 4.82861 7.60753 4.82861 9.20029V13.8646C4.82861 14.0938 5.01437 14.2795 5.24352 14.2795C5.58078 14.2795 5.91145 14.3795 6.20077 14.5689L7.64244 15.513C7.93177 15.7024 8.26243 15.8024 8.59969 15.8024H12.5804C12.9831 15.8024 13.3746 15.6599 13.6966 15.3963L14.6891 14.5841C14.9232 14.3924 15.061 14.0915 15.061 13.7719V7.75969C15.061 7.39665 14.8834 7.06121 14.595 6.87999Z" fill="#828282"/>
<path d="M2.97406 5.70166C1.38466 5.70166 0.0961914 6.99013 0.0961914 8.57953V12.4582C0.0961914 14.0476 1.38466 15.336 2.97406 15.336C3.50383 15.336 3.93335 14.882 3.93335 14.3219V6.7158C3.93335 6.15568 3.50383 5.70166 2.97406 5.70166ZM2.01477 14.3219C1.485 14.3219 1.05548 13.8678 1.05548 13.3077C1.05548 12.7477 1.485 12.2936 2.01477 12.2936C2.54454 12.2936 2.97406 12.7477 2.97406 13.3077C2.97406 13.8678 2.54454 14.3219 2.01477 14.3219Z" fill="#828282"/>
</svg>
