<svg width="15" height="15" viewBox="0 0 15 15" fill="none" xmlns="http://www.w3.org/2000/svg">
<path d="M6.12834 14.0358C6.12326 13.9292 6.08724 13.822 6.10321 13.7164C6.10967 13.6737 6.08739 13.6383 6.03629 13.6111C5.9852 13.5838 5.9597 13.5622 5.9597 13.5468C5.9597 13.5312 5.92307 13.5194 5.84966 13.5117C5.77637 13.5038 5.70272 13.4999 5.62902 13.4999H5.61535H5.51014H2.755C2.33409 13.4999 1.97373 13.3164 1.67394 12.949C1.37422 12.5818 1.22438 12.1405 1.22438 11.6249V3.37479C1.22438 2.85917 1.37419 2.41789 1.67394 2.05069C1.97373 1.68345 2.33409 1.49977 2.755 1.49977H5.81622C5.89915 1.49977 5.96435 1.47457 6.0123 1.42368C6.06005 1.3729 6.09188 1.29668 6.1079 1.19513C6.12385 1.09358 6.13346 1.00189 6.13668 0.919837C6.13983 0.837869 6.13829 0.734269 6.13186 0.609284C6.12552 0.484341 6.12234 0.406231 6.12234 0.374831C6.12234 0.273283 6.09202 0.185568 6.03147 0.111193C5.97085 0.0371465 5.89915 0 5.81625 0H2.755C1.99614 0 1.34718 0.330091 0.808224 0.990231C0.269401 1.65037 -6.10352e-05 2.44522 -6.10352e-05 3.37491V11.6249C-6.10352e-05 12.5545 0.269401 13.3495 0.808224 14.0094C1.34718 14.6699 1.99614 15 2.755 15H5.81635C5.89928 15 5.96452 14.9745 6.01244 14.9239C6.06018 14.873 6.09202 14.7969 6.10803 14.6952C6.12398 14.5938 6.1336 14.5017 6.13681 14.4199C6.13996 14.3379 6.13842 14.2345 6.13199 14.1095C6.13062 14.0828 6.12941 14.0583 6.12834 14.0358Z" fill="white"/>
<path d="M14.8182 6.97283L9.61407 0.597633C9.49298 0.449375 9.34944 0.375 9.18361 0.375C9.01779 0.375 8.87424 0.449375 8.75302 0.597633C8.63182 0.746095 8.57127 0.922059 8.57127 1.12507C8.57127 2.98905 7.06022 4.50011 5.19624 4.50011H4.28555C4.11963 4.50011 3.97618 4.57448 3.85499 4.72274C3.73379 4.8712 3.67325 5.04704 3.67325 5.25018V9.75028C3.67325 9.95338 3.73379 10.1292 3.85499 10.2776C3.97632 10.4258 4.11973 10.5004 4.28555 10.5004H5.19631C7.06027 10.5004 8.57131 12.0114 8.57131 13.8753C8.57131 14.0783 8.63186 14.2543 8.75305 14.4027C8.87424 14.5511 9.01779 14.6255 9.18365 14.6255C9.34944 14.6255 9.49298 14.5511 9.61411 14.4027L14.8182 8.02775C14.9393 7.87917 14.9999 7.70357 14.9999 7.50039C14.9999 7.2973 14.9393 7.12129 14.8182 6.97283Z" fill="white"/>
</svg>
