<svg width="36" height="24" viewBox="0 0 36 24" fill="none" xmlns="http://www.w3.org/2000/svg">
<path d="M34.5089 0.25293H1.38867C0.891601 0.25293 0.489746 0.662493 0.489746 1.16768V22.3656C0.489746 22.8708 0.891601 23.281 1.38867 23.281H34.5089C35.006 23.281 35.4079 22.8714 35.4079 22.3662V1.16768C35.4079 0.662493 35.006 0.25293 34.5089 0.25293ZM8.82608 11.4238C8.33396 11.7924 7.64895 11.9761 6.76363 11.9774H6.55714C6.39825 11.9774 6.24307 12.1045 6.21031 12.2567L5.96178 13.3501C5.92654 13.5062 5.77136 13.6307 5.61433 13.6307H4.89099C4.73395 13.6307 4.63565 13.5024 4.67275 13.3501L5.68975 8.84369C5.72685 8.68893 5.88079 8.56499 6.03782 8.56247L7.54879 8.56184C7.87523 8.56499 8.15776 8.58512 8.40258 8.63042C8.64369 8.67697 8.8539 8.75499 9.03195 8.86571C9.20258 8.97518 9.34045 9.12177 9.427 9.29918C9.52345 9.4766 9.56611 9.69868 9.56611 9.96291C9.56611 10.5669 9.3219 11.0551 8.82608 11.4238ZM13.3157 10.8487L13.2885 11.0381L12.7605 13.3608C12.7296 13.5005 12.5936 13.6194 12.4496 13.6364L12.4397 13.6402H12.3352H11.78H11.767L11.7646 13.6377C11.6267 13.6244 11.5414 13.5055 11.5711 13.3621V13.3608L11.5723 13.3564L11.5995 13.2382L11.5958 13.2338L11.3231 13.4168L11.0264 13.5854L10.6765 13.7075C10.5689 13.7339 10.4174 13.7496 10.2221 13.7496C9.91356 13.7496 9.65513 13.6635 9.45977 13.4854C9.26564 13.3036 9.16549 13.0714 9.16549 12.7871C9.16549 12.4851 9.23411 12.2297 9.37198 12.017C9.51479 11.8056 9.71881 11.6408 9.99455 11.5175C10.2511 11.3986 10.5596 11.3105 10.912 11.2608C11.2718 11.208 11.5686 11.1696 11.9797 11.1432L12.0836 11.0777L12.0966 10.9739C12.0966 10.8141 12.0236 10.704 11.8783 10.6392C11.7312 10.5763 11.5098 10.5449 11.2205 10.5449C11.0239 10.5423 10.7766 10.5832 10.5423 10.6373C10.2969 10.694 10.2295 10.7311 10.1095 10.7676C10.0539 10.7871 9.91974 10.7965 9.96982 10.56L10.0582 10.1894C10.0582 10.1894 10.1015 9.90944 10.3766 9.84841C10.5095 9.81822 10.5306 9.81255 10.7476 9.77858C11.0412 9.73265 11.3318 9.70938 11.623 9.70938C12.2122 9.70938 12.6437 9.78739 12.9163 9.94404C13.1902 10.1001 13.3299 10.3442 13.3287 10.6719L13.3157 10.8487ZM14.4786 15.425L13.7293 15.4263C13.5735 15.4263 13.5222 15.3005 13.6174 15.1457L14.2585 14.0082C14.2585 14.0082 14.3099 13.9434 14.2641 13.5722C14.1652 12.9016 13.6731 10.0504 13.6731 10.0504C13.6372 9.89623 13.7337 9.76977 13.8895 9.76977L14.538 9.76851C14.7364 9.76851 14.8959 9.90126 14.9318 10.0573L15.2545 12.0346L15.3745 12.0359C15.4752 11.8541 16.5114 10.0447 16.5114 10.0447C16.6103 9.89245 16.8106 9.76348 16.9664 9.76348C16.9664 9.76348 17.6632 9.76537 17.8344 9.76348C18.0916 9.75971 17.8146 10.1837 17.8146 10.1837L14.9312 15.1457C14.8384 15.3005 14.6332 15.425 14.4786 15.425ZM21.9698 11.4433C21.4759 11.81 20.7878 11.9956 19.9024 11.9956H19.6959C19.5402 11.9931 19.3844 12.1221 19.3485 12.2743L19.1037 13.3697C19.0678 13.5225 18.9095 13.6484 18.7562 13.6465L18.031 13.6484C17.8771 13.649 17.7757 13.5219 17.8128 13.369L18.8304 8.86005C18.8675 8.70717 19.0196 8.5826 19.1766 8.58009L20.6895 8.57883C21.014 8.58009 21.2997 8.60337 21.5395 8.64678C21.7837 8.69207 21.9939 8.77008 22.1695 8.88144C22.342 8.99405 22.4774 9.13813 22.5677 9.3168C22.6604 9.49296 22.7055 9.71567 22.7068 9.9799C22.7068 10.5832 22.4589 11.0702 21.9698 11.4433ZM26.457 10.8519L26.4304 11.0425L25.9012 13.3634C25.8715 13.5037 25.7349 13.6226 25.5927 13.6402L25.5828 13.644H25.479C25.3293 13.644 25.014 13.644 24.9232 13.644H24.9102L24.9089 13.6402C24.7686 13.627 24.682 13.5087 24.716 13.3646L24.7148 13.3627L24.7179 13.3602L24.742 13.2419L24.7377 13.2363L24.4669 13.4219L24.1683 13.5898L23.819 13.71C23.7114 13.7383 23.5593 13.7503 23.3658 13.7534C23.0567 13.7534 22.8007 13.6641 22.6041 13.4873C22.4088 13.3074 22.308 13.074 22.308 12.7883C22.308 12.4882 22.3766 12.2316 22.5151 12.0202C22.6567 11.8088 22.8638 11.6446 23.1371 11.52C23.3955 11.4005 23.7058 11.3137 24.0564 11.2633C24.4137 11.2105 24.7105 11.1721 25.1247 11.1463L25.2286 11.0796L25.2397 10.9758C25.2397 10.8173 25.168 10.7059 25.0208 10.6417C24.8737 10.5782 24.6524 10.5467 24.3643 10.5467C24.1664 10.5455 23.9185 10.5858 23.6848 10.6392C23.4406 10.6971 23.3745 10.733 23.2551 10.7695C23.1946 10.7877 23.0641 10.7984 23.1136 10.5618L23.202 10.1919C23.202 10.1919 23.2434 9.91133 23.5198 9.85093C23.6539 9.82136 23.6756 9.81444 23.8919 9.78236C24.1837 9.73454 24.4762 9.71126 24.7674 9.71126C25.3541 9.71126 25.785 9.79053 26.0601 9.94719C26.3358 10.1032 26.4737 10.3461 26.4737 10.6738L26.457 10.8519ZM28.7754 8.89717L27.806 13.3646L27.772 13.4175C27.7145 13.5433 27.5921 13.6452 27.4592 13.6452H26.7865L26.7742 13.6295C26.6462 13.6094 26.5627 13.5043 26.593 13.3671L26.5918 13.364L26.6208 13.235L27.5272 9.04376L27.5593 8.8978L27.5958 8.84055C27.6545 8.71724 27.7745 8.61721 27.9074 8.61721H28.5547C28.7123 8.61721 28.8069 8.7424 28.7735 8.89591L28.7754 8.89717ZM30.0601 8.414H29.8177V8.74177L29.8196 8.82985L29.8363 8.88899L29.8746 8.92674L29.9488 8.93869L30.0094 8.92988L30.0545 8.91604H30.0601V9.02362L29.9878 9.03809L29.9191 9.04376L29.7547 8.98399L29.6984 8.79525V8.414H29.6168V8.31208H29.6984V8.10761H29.8177V8.31208H30.0601V8.414ZM31.2317 8.56436V9.02803H31.1148V8.61909L31.1074 8.53164L31.0919 8.46244L31.0511 8.42155L30.9726 8.40708L30.8743 8.43287L30.7735 8.49767L30.7754 8.5329L30.7766 8.57065V9.02929H30.6592V8.62035L30.6542 8.53164L30.6375 8.46307L30.598 8.42218L30.5182 8.40771L30.4212 8.43224L30.3229 8.49453V9.02929H30.2066V8.31271H30.3229V8.39261L30.4354 8.31963L30.5516 8.29321L30.674 8.32277L30.7494 8.40834L30.8793 8.31963L31.006 8.29321L31.1773 8.3643L31.2329 8.56436H31.2317Z" fill="white"/>
</svg>
