<svg width="18" height="19" viewBox="0 0 18 19" fill="none" xmlns="http://www.w3.org/2000/svg">
<path d="M17.7287 0.780055C17.7246 0.775981 17.7205 0.771971 17.7164 0.767898C17.6954 0.747085 17.6734 0.727672 17.6508 0.709213C17.6434 0.703167 17.6357 0.697757 17.6281 0.691965C17.6126 0.680126 17.5971 0.668415 17.581 0.657658C17.5717 0.65142 17.5621 0.645692 17.5526 0.639773C17.5376 0.63048 17.5226 0.621505 17.5072 0.613168C17.497 0.60763 17.4867 0.602411 17.4763 0.597255C17.4609 0.589681 17.4455 0.582552 17.4298 0.575806C17.4192 0.571287 17.4087 0.566831 17.3979 0.562694C17.3817 0.556456 17.3652 0.550855 17.3486 0.545573C17.3383 0.542263 17.328 0.538698 17.3175 0.535771C17.2991 0.530551 17.2805 0.526287 17.2618 0.522213C17.2531 0.520304 17.2444 0.517949 17.2356 0.516294C17.2081 0.511139 17.1804 0.507001 17.1525 0.504328C17.1497 0.504074 17.1468 0.504137 17.1439 0.503883C17.1188 0.501719 17.0936 0.500446 17.0684 0.500255L17.0626 0.5C17.0432 0.5 17.0239 0.500891 17.0046 0.5021C17.0019 0.502291 16.9992 0.502228 16.9965 0.502419C16.9723 0.504137 16.9482 0.506938 16.9241 0.510566C16.9164 0.511711 16.9087 0.513366 16.901 0.514767C16.8845 0.517631 16.8682 0.520749 16.8518 0.524505C16.8426 0.526605 16.8336 0.529151 16.8245 0.53157C16.8096 0.535516 16.7948 0.539717 16.7801 0.544363C16.7708 0.547355 16.7615 0.550473 16.7522 0.553783C16.7376 0.558939 16.7232 0.56454 16.7088 0.570459C16.6999 0.574087 16.691 0.577715 16.6822 0.581661C16.6669 0.588535 16.6517 0.59611 16.6366 0.603875C16.6292 0.607694 16.6217 0.611194 16.6145 0.615204C16.5924 0.627361 16.5706 0.640282 16.5493 0.654412L8.62121 5.90257C8.1022 6.24614 7.6519 6.68359 7.29346 7.19244L4.49228 11.1691C4.42825 11.26 4.31986 11.3068 4.20867 11.3068C3.49231 11.3068 2.70276 11.7291 1.862 12.562C0.0638679 14.3432 0.00661811 17.8641 0.00507603 18.0132C0.00228887 18.2805 0.224186 18.4979 0.491475 18.4955C0.642086 18.4941 4.19987 18.4407 5.9982 16.6592C7.31277 15.357 8.26057 13.2852 9.8058 12.2673L11.2895 11.29C11.8678 10.909 12.3607 10.4121 12.7369 9.83066L17.8537 1.92255C17.9124 1.83191 17.9531 1.73421 17.9765 1.63384C17.9939 1.55861 18.0016 1.48185 17.9997 1.40553C17.9939 1.17659 17.9017 0.95127 17.7287 0.780055ZM8.02269 12.2953C7.49624 12.6421 6.79885 12.5728 6.35099 12.1291C5.88862 11.6711 5.8245 10.9462 6.19929 10.4141L6.90221 9.41623C7.45966 8.62484 8.59473 8.52444 9.28244 9.20568C9.98854 9.90514 9.87203 11.0771 9.04203 11.6238L8.02269 12.2953Z" fill="#656565"/>
</svg>
