<svg width="21" height="23" viewBox="0 0 21 23" fill="none" xmlns="http://www.w3.org/2000/svg">
<path d="M13.3056 16.0147C12.5897 16.2489 11.8468 16.3659 11.0904 16.3659C9.19935 16.3659 7.42087 15.6275 6.07914 14.2903C4.7419 12.9531 4.00349 11.1746 4.00349 9.27904C4.00349 7.388 4.7419 5.60502 6.07914 4.26778C7.42087 2.93505 9.19935 2.19664 11.0904 2.19664C12.0089 2.19664 12.9049 2.37224 13.7559 2.71443C14.6338 3.07012 15.4263 3.59691 16.1016 4.27228C17.3173 5.48795 18.0467 7.09534 18.1593 8.80628C18.2448 10.112 17.9702 11.4042 17.3804 12.5478L18.3484 13.5159C19.1318 12.2417 19.5821 10.7378 19.5821 9.13496C19.5821 4.49291 15.8225 0.733337 11.1804 0.733337C9.89724 0.733337 8.67707 1.0215 7.59197 1.53928C4.72389 2.87201 2.7338 5.77611 2.7338 9.14847V10.2741V10.5442L1.02285 13.813C0.590616 14.637 1.00034 15.3124 1.93235 15.3124H2.7383V15.3304V16.7531V18.4191C2.7383 19.3916 3.53073 20.184 4.50327 20.184L6.9256 19.8238L6.9301 22.2462V22.2642C6.94361 22.5749 7.20475 22.782 7.52893 22.7234L16.2637 21.1791C16.5924 21.1206 16.8626 20.8009 16.8626 20.4632V20.0805V19.7743V18.0724L14.3637 15.5735C14.0215 15.7491 13.6658 15.8977 13.3056 16.0147Z" fill="#ADABAB"/>
<path d="M20.5411 17.0548L16.4483 12.9621L16.2277 13.1827L16.0026 12.9576C17.8081 10.5533 17.6145 7.12689 15.4308 4.94319C13.0354 2.54787 9.14981 2.54787 6.7545 4.94319C4.35918 7.3385 4.35918 11.2241 6.7545 13.6195C8.9427 15.8077 12.3691 15.9968 14.7689 14.1913L14.994 14.4164L14.7734 14.637L18.8662 18.7298C19.3299 19.1935 20.0818 19.1935 20.5456 18.7298C21.0003 18.2705 21.0003 17.5186 20.5411 17.0548ZM14.4222 12.6154C12.5807 14.4569 9.59556 14.4569 7.75404 12.6154C5.91253 10.7739 5.91253 7.78875 7.75404 5.94724C9.59556 4.10573 12.5807 4.10573 14.4222 5.94724C16.2637 7.79325 16.2637 10.7784 14.4222 12.6154Z" fill="#ADABAB"/>
<path d="M11.0902 10.0534C11.5155 10.0534 11.8602 9.70869 11.8602 9.28347C11.8602 8.85826 11.5155 8.51355 11.0902 8.51355C10.665 8.51355 10.3203 8.85826 10.3203 9.28347C10.3203 9.70869 10.665 10.0534 11.0902 10.0534Z" fill="#ADABAB"/>
<path d="M13.4682 10.0534C13.8934 10.0534 14.2381 9.70869 14.2381 9.28347C14.2381 8.85826 13.8934 8.51355 13.4682 8.51355C13.0429 8.51355 12.6982 8.85826 12.6982 9.28347C12.6982 9.70869 13.0429 10.0534 13.4682 10.0534Z" fill="#ADABAB"/>
<path d="M8.71328 10.0534C9.1385 10.0534 9.48321 9.70869 9.48321 9.28347C9.48321 8.85826 9.1385 8.51355 8.71328 8.51355C8.28807 8.51355 7.94336 8.85826 7.94336 9.28347C7.94336 9.70869 8.28807 10.0534 8.71328 10.0534Z" fill="#ADABAB"/>
</svg>
