<svg width="16" height="11" viewBox="0 0 16 11" fill="none" xmlns="http://www.w3.org/2000/svg">
<path d="M15.1473 5.06298C15.1317 5.01144 14.7529 3.78662 13.6448 2.56495C12.6401 1.45745 10.8225 0.141455 7.84876 0.101882C7.80426 0.100717 7.75968 0.0999756 7.715 0.0999756C7.71424 0.0999756 7.71344 0.100011 7.71267 0.100011C7.71243 0.100011 7.71219 0.100011 7.71198 0.100011C4.65651 0.100011 2.79923 1.44047 1.7792 2.56495C0.671028 3.78659 0.292177 5.01144 0.276601 5.06298L0.229492 5.21869L0.276567 5.3744C0.292143 5.42594 0.670993 6.65075 1.77917 7.87242C2.7838 8.97993 4.60142 10.2959 7.57516 10.3355C7.61967 10.3367 7.66425 10.3374 7.70893 10.3374C7.70969 10.3374 7.71049 10.3374 7.71125 10.3374C7.71149 10.3374 7.71174 10.3374 7.71198 10.3374C10.7675 10.3374 12.6247 8.99691 13.6448 7.87242C14.7529 6.65079 15.1318 5.42594 15.1474 5.3744L15.1944 5.21869L15.1473 5.06298ZM4.94645 8.14463C4.19745 7.41171 3.76376 6.42596 3.72529 5.36893C3.68584 4.28532 4.06345 3.25093 4.78854 2.4563C5.51363 1.66167 6.49939 1.20197 7.56427 1.16184C7.61433 1.15997 7.66501 1.15901 7.71496 1.15901C8.74922 1.15901 9.73025 1.56162 10.4774 2.29275C11.2264 3.02564 11.6601 4.01139 11.6986 5.06838C11.738 6.15202 11.3604 7.18645 10.6353 7.98108C9.91022 8.77571 8.92447 9.2354 7.85955 9.27554C7.80953 9.27741 7.75885 9.27837 7.70889 9.27837C6.67468 9.27837 5.6936 8.87572 4.94645 8.14463Z" fill="#828282"/>
<path d="M7.82369 8.28401C8.62825 8.25372 9.37309 7.90635 9.92098 7.30595C10.4688 6.70555 10.7541 5.92398 10.7243 5.10523C10.6953 4.30658 10.3676 3.56172 9.80158 3.00792C9.2371 2.45559 8.4956 2.15137 7.71375 2.15137C7.67618 2.15137 7.63837 2.15207 7.60052 2.15352C6.79596 2.18381 6.05109 2.53114 5.50323 3.13158C4.95537 3.73198 4.67007 4.51355 4.69987 5.33226C4.72894 6.13095 5.05663 6.8758 5.62263 7.42961C6.18711 7.98193 6.92858 8.28616 7.71042 8.28616C7.74803 8.28616 7.78584 8.28545 7.82369 8.28401ZM7.71212 4.68924C7.71212 4.39681 7.9451 4.15973 8.23247 4.15973C8.51985 4.15973 8.75283 4.39681 8.75283 4.68924C8.75283 4.98168 8.51985 5.21876 8.23247 5.21876C7.9451 5.21876 7.71212 4.98168 7.71212 4.68924Z" fill="#828282"/>
</svg>
