<svg width="18" height="16" viewBox="0 0 18 16" fill="none" xmlns="http://www.w3.org/2000/svg">
<path d="M2.97642 8.39734C4.08096 8.39734 4.74205 7.23439 4.00954 6.40768C3.64532 5.99663 3.21814 5.56793 2.71725 5.13008C2.44466 4.89179 2.07851 4.75513 1.71259 4.75513C1.32788 4.75513 0.950878 4.896 0.592024 5.17389C-0.526953 6.04031 0.236118 7.11077 0.49665 7.41826C0.5569 7.48937 0.617642 7.56556 0.67856 7.64654C1.14065 8.26076 2.20779 8.39734 2.97642 8.39734Z" fill="#656565"/>
<path d="M17.4083 5.17389C17.0494 4.89604 16.6724 4.75513 16.2877 4.75513C15.9218 4.75513 15.5556 4.89179 15.283 5.13008C14.7822 5.56792 14.355 5.99661 13.9908 6.40766C13.2582 7.23438 13.9194 8.39734 15.0239 8.39734C15.7924 8.39734 16.8594 8.26088 17.3215 7.64678C17.3825 7.56571 17.4433 7.48942 17.5036 7.41822C17.7642 7.11077 18.5273 6.04027 17.4083 5.17389Z" fill="#656565"/>
<path d="M16.1049 12.4303V10.1331C16.1049 9.56983 15.6198 9.11157 15.0236 9.11157H2.97635C2.38009 9.11157 1.89502 9.56983 1.89502 10.1331V12.4303C1.89502 12.9935 2.38009 13.4517 2.97635 13.4517H15.0235C15.6198 13.4517 16.1049 12.9935 16.1049 12.4303Z" fill="#656565"/>
<path d="M14.2988 14.1658C13.9635 14.1658 13.705 14.4611 13.7495 14.7935L13.7836 15.049C13.8181 15.3071 14.0384 15.4999 14.2988 15.4999C14.5592 15.4999 14.7795 15.3071 14.814 15.049L14.8482 14.7935C14.8926 14.4611 14.6341 14.1658 14.2988 14.1658Z" fill="#656565"/>
<path d="M3.70117 14.1658C3.36588 14.1658 3.10737 14.4612 3.1518 14.7935L3.18597 15.049C3.22049 15.3071 3.44072 15.4999 3.70117 15.4999C3.96161 15.4999 4.18185 15.3071 4.21637 15.049L4.25053 14.7935C4.29497 14.4612 4.03646 14.1658 3.70117 14.1658Z" fill="#656565"/>
<path d="M8.99989 8.39734C10.6726 8.39734 12.1611 7.40156 13.2492 6.13123C13.67 5.63993 14.1715 5.12826 14.7691 4.60586C15.1279 4.2922 15.3635 3.78099 15.0898 3.3908C13.8797 1.66521 11.6034 0.5 8.99987 0.5C6.3965 0.5 4.12005 1.66491 2.90972 3.39028C2.6359 3.78063 2.8716 4.29208 3.2306 4.60586C3.82817 5.12823 4.32963 5.63987 4.75047 6.13115C5.83865 7.4015 7.32719 8.39734 8.99989 8.39734Z" fill="#656565"/>
</svg>
